G75*
%MOIN*%
%OFA0B0*%
%FSLAX24Y24*%
%IPPOS*%
%LPD*%
%AMOC8*
5,1,8,0,0,1.08239X$1,22.5*
%
%ADD10C,0.0000*%
%ADD11R,0.0630X0.0630*%
%ADD12C,0.0630*%
%ADD13R,0.0820X0.0260*%
%ADD14C,0.0640*%
%ADD15C,0.1340*%
%ADD16C,0.0614*%
%ADD17C,0.1540*%
%ADD18OC8,0.0560*%
%ADD19C,0.0560*%
%ADD20C,0.0480*%
%ADD21C,0.2580*%
D10*
X000101Y000101D02*
X000101Y016322D01*
X025416Y016322D01*
X025416Y000101D01*
X000101Y000101D01*
X005298Y014371D02*
X005300Y014421D01*
X005306Y014471D01*
X005316Y014521D01*
X005329Y014569D01*
X005346Y014617D01*
X005367Y014663D01*
X005391Y014707D01*
X005419Y014749D01*
X005450Y014789D01*
X005484Y014826D01*
X005521Y014861D01*
X005560Y014892D01*
X005601Y014921D01*
X005645Y014946D01*
X005691Y014968D01*
X005738Y014986D01*
X005786Y015000D01*
X005835Y015011D01*
X005885Y015018D01*
X005935Y015021D01*
X005986Y015020D01*
X006036Y015015D01*
X006086Y015006D01*
X006134Y014994D01*
X006182Y014977D01*
X006228Y014957D01*
X006273Y014934D01*
X006316Y014907D01*
X006356Y014877D01*
X006394Y014844D01*
X006429Y014808D01*
X006462Y014769D01*
X006491Y014728D01*
X006517Y014685D01*
X006540Y014640D01*
X006559Y014593D01*
X006574Y014545D01*
X006586Y014496D01*
X006594Y014446D01*
X006598Y014396D01*
X006598Y014346D01*
X006594Y014296D01*
X006586Y014246D01*
X006574Y014197D01*
X006559Y014149D01*
X006540Y014102D01*
X006517Y014057D01*
X006491Y014014D01*
X006462Y013973D01*
X006429Y013934D01*
X006394Y013898D01*
X006356Y013865D01*
X006316Y013835D01*
X006273Y013808D01*
X006228Y013785D01*
X006182Y013765D01*
X006134Y013748D01*
X006086Y013736D01*
X006036Y013727D01*
X005986Y013722D01*
X005935Y013721D01*
X005885Y013724D01*
X005835Y013731D01*
X005786Y013742D01*
X005738Y013756D01*
X005691Y013774D01*
X005645Y013796D01*
X005601Y013821D01*
X005560Y013850D01*
X005521Y013881D01*
X005484Y013916D01*
X005450Y013953D01*
X005419Y013993D01*
X005391Y014035D01*
X005367Y014079D01*
X005346Y014125D01*
X005329Y014173D01*
X005316Y014221D01*
X005306Y014271D01*
X005300Y014321D01*
X005298Y014371D01*
D11*
X018562Y014271D03*
D12*
X018562Y013271D03*
X018562Y012271D03*
X018562Y011271D03*
X018562Y010271D03*
X018562Y009271D03*
X018562Y008271D03*
X018562Y007271D03*
X018562Y006271D03*
X018562Y005271D03*
X018562Y004271D03*
X018562Y003271D03*
X018562Y002271D03*
X018562Y001271D03*
X021562Y001271D03*
X021562Y002271D03*
X021562Y003271D03*
X021562Y004271D03*
X021562Y005271D03*
X021562Y006271D03*
X021562Y007271D03*
X021562Y008271D03*
X021562Y009271D03*
X021562Y010271D03*
X021562Y011271D03*
X021562Y012271D03*
X021562Y013271D03*
X021562Y014271D03*
D13*
X011913Y009985D03*
X011913Y009485D03*
X011913Y008985D03*
X011913Y008485D03*
X010053Y008485D03*
X010053Y008985D03*
X010053Y009485D03*
X010053Y009985D03*
D14*
X006948Y008771D02*
X006948Y008171D01*
X005948Y008171D02*
X005948Y008771D01*
X004948Y008771D02*
X004948Y008171D01*
X001791Y008278D02*
X001191Y008278D01*
X001191Y007278D02*
X001791Y007278D01*
X001791Y006278D02*
X001191Y006278D01*
X001191Y005278D02*
X001791Y005278D01*
X001791Y004278D02*
X001191Y004278D01*
X001191Y009278D02*
X001791Y009278D01*
X001791Y010278D02*
X001191Y010278D01*
X001191Y011278D02*
X001791Y011278D01*
X001791Y012278D02*
X001191Y012278D01*
X009278Y014494D02*
X009278Y015094D01*
X010278Y015094D02*
X010278Y014494D01*
X011278Y014494D02*
X011278Y015094D01*
X012278Y015094D02*
X012278Y014494D01*
X013278Y014494D02*
X013278Y015094D01*
D15*
X005948Y014371D03*
D16*
X023019Y009196D02*
X023593Y009196D01*
X023593Y008211D02*
X023019Y008211D01*
X023019Y007424D02*
X023593Y007424D01*
X023593Y006440D02*
X023019Y006440D01*
D17*
X024373Y005219D03*
X024373Y010416D03*
D18*
X023507Y012278D03*
X022507Y012278D03*
X017589Y013117D03*
X017570Y014274D03*
X014570Y014274D03*
X014589Y013117D03*
X014428Y007546D03*
X014428Y006546D03*
X014448Y005385D03*
X014448Y004385D03*
X014810Y002704D03*
X014837Y001271D03*
X012247Y001649D03*
X012247Y002649D03*
X009176Y002633D03*
X009176Y001633D03*
X006302Y001625D03*
X006302Y002625D03*
X004145Y001294D03*
X004145Y004294D03*
X004960Y006664D03*
X005960Y006664D03*
X017810Y002704D03*
X017837Y001271D03*
D19*
X012483Y007475D02*
X012483Y007995D01*
X011483Y007995D02*
X011483Y007475D01*
X010483Y007475D02*
X010483Y007995D01*
X009483Y007995D02*
X009483Y007475D01*
X009483Y010475D02*
X009483Y010995D01*
X010483Y010995D02*
X010483Y010475D01*
X011483Y010475D02*
X011483Y010995D01*
X012483Y010995D02*
X012483Y010475D01*
X014322Y011554D02*
X014842Y011554D01*
X017322Y011554D02*
X017842Y011554D01*
D20*
X016817Y006928D02*
X016377Y006928D01*
X016377Y004928D02*
X016817Y004928D01*
D21*
X023763Y001991D03*
X023763Y014589D03*
X001715Y014589D03*
X001715Y001991D03*
M02*
