G75*
%MOIN*%
%OFA0B0*%
%FSLAX24Y24*%
%IPPOS*%
%LPD*%
%AMOC8*
5,1,8,0,0,1.08239X$1,22.5*
%
%ADD10C,0.0000*%
%ADD11R,0.0590X0.0590*%
%ADD12C,0.0590*%
%ADD13C,0.0600*%
%ADD14C,0.0574*%
%ADD15C,0.1500*%
%ADD16OC8,0.0520*%
%ADD17C,0.0520*%
%ADD18C,0.0440*%
%ADD19C,0.0240*%
%ADD20C,0.0160*%
%ADD21C,0.0413*%
%ADD22C,0.0120*%
%ADD23C,0.0100*%
%ADD24C,0.0360*%
%ADD25C,0.2540*%
D10*
X000101Y000101D02*
X000101Y016322D01*
X025416Y016322D01*
X025416Y000101D01*
X000101Y000101D01*
X005298Y014371D02*
X005300Y014421D01*
X005306Y014471D01*
X005316Y014521D01*
X005329Y014569D01*
X005346Y014617D01*
X005367Y014663D01*
X005391Y014707D01*
X005419Y014749D01*
X005450Y014789D01*
X005484Y014826D01*
X005521Y014861D01*
X005560Y014892D01*
X005601Y014921D01*
X005645Y014946D01*
X005691Y014968D01*
X005738Y014986D01*
X005786Y015000D01*
X005835Y015011D01*
X005885Y015018D01*
X005935Y015021D01*
X005986Y015020D01*
X006036Y015015D01*
X006086Y015006D01*
X006134Y014994D01*
X006182Y014977D01*
X006228Y014957D01*
X006273Y014934D01*
X006316Y014907D01*
X006356Y014877D01*
X006394Y014844D01*
X006429Y014808D01*
X006462Y014769D01*
X006491Y014728D01*
X006517Y014685D01*
X006540Y014640D01*
X006559Y014593D01*
X006574Y014545D01*
X006586Y014496D01*
X006594Y014446D01*
X006598Y014396D01*
X006598Y014346D01*
X006594Y014296D01*
X006586Y014246D01*
X006574Y014197D01*
X006559Y014149D01*
X006540Y014102D01*
X006517Y014057D01*
X006491Y014014D01*
X006462Y013973D01*
X006429Y013934D01*
X006394Y013898D01*
X006356Y013865D01*
X006316Y013835D01*
X006273Y013808D01*
X006228Y013785D01*
X006182Y013765D01*
X006134Y013748D01*
X006086Y013736D01*
X006036Y013727D01*
X005986Y013722D01*
X005935Y013721D01*
X005885Y013724D01*
X005835Y013731D01*
X005786Y013742D01*
X005738Y013756D01*
X005691Y013774D01*
X005645Y013796D01*
X005601Y013821D01*
X005560Y013850D01*
X005521Y013881D01*
X005484Y013916D01*
X005450Y013953D01*
X005419Y013993D01*
X005391Y014035D01*
X005367Y014079D01*
X005346Y014125D01*
X005329Y014173D01*
X005316Y014221D01*
X005306Y014271D01*
X005300Y014321D01*
X005298Y014371D01*
D11*
X018562Y014271D03*
D12*
X018562Y013271D03*
X018562Y012271D03*
X018562Y011271D03*
X018562Y010271D03*
X018562Y009271D03*
X018562Y008271D03*
X018562Y007271D03*
X018562Y006271D03*
X018562Y005271D03*
X018562Y004271D03*
X018562Y003271D03*
X018562Y002271D03*
X018562Y001271D03*
X021562Y001271D03*
X021562Y002271D03*
X021562Y003271D03*
X021562Y004271D03*
X021562Y005271D03*
X021562Y006271D03*
X021562Y007271D03*
X021562Y008271D03*
X021562Y009271D03*
X021562Y010271D03*
X021562Y011271D03*
X021562Y012271D03*
X021562Y013271D03*
X021562Y014271D03*
D13*
X013278Y014494D02*
X013278Y015094D01*
X012278Y015094D02*
X012278Y014494D01*
X011278Y014494D02*
X011278Y015094D01*
X010278Y015094D02*
X010278Y014494D01*
X009278Y014494D02*
X009278Y015094D01*
X001791Y012278D02*
X001191Y012278D01*
X001191Y011278D02*
X001791Y011278D01*
X001791Y010278D02*
X001191Y010278D01*
X001191Y009278D02*
X001791Y009278D01*
X001791Y008278D02*
X001191Y008278D01*
X001191Y007278D02*
X001791Y007278D01*
X001791Y006278D02*
X001191Y006278D01*
X001191Y005278D02*
X001791Y005278D01*
X001791Y004278D02*
X001191Y004278D01*
X004948Y008171D02*
X004948Y008771D01*
X005948Y008771D02*
X005948Y008171D01*
X006948Y008171D02*
X006948Y008771D01*
D14*
X023019Y009196D02*
X023593Y009196D01*
X023593Y008211D02*
X023019Y008211D01*
X023019Y007424D02*
X023593Y007424D01*
X023593Y006440D02*
X023019Y006440D01*
D15*
X024373Y005219D03*
X024373Y010416D03*
D16*
X023507Y012278D03*
X022507Y012278D03*
X017589Y013117D03*
X017570Y014274D03*
X014570Y014274D03*
X014589Y013117D03*
X014428Y007546D03*
X014428Y006546D03*
X014448Y005385D03*
X014448Y004385D03*
X014810Y002704D03*
X014837Y001271D03*
X012247Y001649D03*
X012247Y002649D03*
X009176Y002633D03*
X009176Y001633D03*
X006302Y001625D03*
X006302Y002625D03*
X004145Y001294D03*
X004145Y004294D03*
X004960Y006664D03*
X005960Y006664D03*
X017810Y002704D03*
X017837Y001271D03*
D17*
X012483Y007475D02*
X012483Y007995D01*
X011483Y007995D02*
X011483Y007475D01*
X010483Y007475D02*
X010483Y007995D01*
X009483Y007995D02*
X009483Y007475D01*
X009483Y010475D02*
X009483Y010995D01*
X010483Y010995D02*
X010483Y010475D01*
X011483Y010475D02*
X011483Y010995D01*
X012483Y010995D02*
X012483Y010475D01*
X014322Y011554D02*
X014842Y011554D01*
X017322Y011554D02*
X017842Y011554D01*
D18*
X016817Y006928D02*
X016377Y006928D01*
X016377Y004928D02*
X016817Y004928D01*
D19*
X014448Y004385D02*
X014188Y004125D01*
X013920Y004393D01*
X013881Y004393D01*
X013881Y007546D01*
X013692Y007735D01*
X013133Y007735D01*
X013133Y011479D01*
X011282Y011479D01*
X011282Y014794D01*
X011278Y014794D01*
X010278Y014794D02*
X010278Y011440D01*
X009483Y011440D01*
X009483Y010735D01*
X008605Y010735D01*
X008605Y006676D01*
X005960Y006676D01*
X005960Y006664D01*
X005960Y005062D01*
X005967Y005062D01*
X004145Y004294D02*
X004145Y006282D01*
X004156Y006282D01*
X004960Y006664D02*
X004960Y002625D01*
X006302Y002625D01*
X006302Y002633D01*
X009176Y002633D01*
X009176Y002649D01*
X012247Y002649D01*
X012711Y002649D01*
X014188Y004125D01*
X013920Y002704D02*
X013920Y002700D01*
X013920Y002704D02*
X014810Y002704D01*
X014837Y001649D02*
X014837Y001271D01*
X014837Y001649D02*
X012247Y001649D01*
X017837Y001271D02*
X018562Y001271D01*
X018562Y002267D02*
X018562Y002271D01*
X018562Y002267D02*
X020692Y002267D01*
X020692Y009271D01*
X021562Y009271D01*
X021562Y009274D01*
X022306Y009274D01*
X022306Y012278D01*
X022507Y012278D01*
X023306Y012278D02*
X023306Y009196D01*
X020180Y007271D02*
X020180Y013290D01*
X021562Y013290D01*
X021562Y013271D01*
X022515Y013271D01*
X023507Y012278D01*
X023306Y012278D01*
X021562Y014271D02*
X021562Y015101D01*
X014570Y015101D01*
X014570Y014274D01*
X014570Y013137D01*
X014589Y013117D01*
X005960Y008471D02*
X005960Y006664D01*
X004960Y006664D02*
X004960Y007188D01*
X002975Y007188D01*
X002975Y005278D01*
X001491Y005278D01*
X001491Y004278D02*
X003330Y004278D01*
X003330Y000652D01*
X021519Y000652D01*
X021519Y001271D01*
X021562Y001271D01*
X022188Y001271D01*
X022188Y002739D01*
X022306Y002739D01*
X022306Y006440D01*
X023306Y006440D01*
X020180Y007271D02*
X018562Y007271D01*
X018286Y007546D01*
X014428Y007546D01*
X013881Y007546D01*
X013133Y007735D02*
X012483Y007735D01*
X005960Y008471D02*
X005948Y008471D01*
X004960Y008471D02*
X004960Y007188D01*
X004948Y008471D02*
X004960Y008471D01*
X006302Y001625D02*
X006302Y001294D01*
X004145Y001294D01*
X017810Y002704D02*
X018562Y003271D01*
D20*
X019057Y003271D02*
X020372Y003271D01*
X020372Y003113D02*
X019032Y003113D01*
X019057Y003172D02*
X018982Y002990D01*
X018842Y002851D01*
X018660Y002776D01*
X018463Y002776D01*
X018446Y002783D01*
X018375Y002729D01*
X018463Y002766D01*
X018660Y002766D01*
X018842Y002690D01*
X018946Y002587D01*
X020372Y002587D01*
X020372Y009334D01*
X020421Y009452D01*
X020511Y009542D01*
X020628Y009591D01*
X021182Y009591D01*
X021281Y009690D01*
X021463Y009766D01*
X021660Y009766D01*
X021842Y009690D01*
X021938Y009594D01*
X021986Y009594D01*
X021986Y010001D01*
X021982Y009990D01*
X021842Y009851D01*
X021660Y009776D01*
X021463Y009776D01*
X021281Y009851D01*
X021142Y009990D01*
X021067Y010172D01*
X021067Y010369D01*
X021142Y010551D01*
X021281Y010690D01*
X021463Y010766D01*
X021660Y010766D01*
X021842Y010690D01*
X021982Y010551D01*
X021986Y010540D01*
X021986Y011001D01*
X021982Y010990D01*
X021842Y010851D01*
X021660Y010776D01*
X021463Y010776D01*
X021281Y010851D01*
X021142Y010990D01*
X021067Y011172D01*
X021067Y011369D01*
X021142Y011551D01*
X021281Y011690D01*
X021463Y011766D01*
X021660Y011766D01*
X021842Y011690D01*
X021982Y011551D01*
X021986Y011540D01*
X021986Y012001D01*
X021982Y011990D01*
X021842Y011851D01*
X021660Y011776D01*
X021463Y011776D01*
X021281Y011851D01*
X021142Y011990D01*
X021067Y012172D01*
X021067Y012369D01*
X021142Y012551D01*
X021281Y012690D01*
X021463Y012766D01*
X021660Y012766D01*
X021842Y012690D01*
X021982Y012551D01*
X022027Y012441D01*
X022035Y012460D01*
X022125Y012550D01*
X022129Y012552D01*
X022316Y012738D01*
X022697Y012738D01*
X022967Y012469D01*
X022967Y012088D01*
X022697Y011818D01*
X022626Y011818D01*
X022626Y009449D01*
X022663Y009500D01*
X022715Y009552D01*
X022774Y009595D01*
X022840Y009629D01*
X022910Y009651D01*
X022982Y009663D01*
X023292Y009663D01*
X023292Y009209D01*
X023319Y009209D01*
X023319Y009663D01*
X023630Y009663D01*
X023702Y009651D01*
X023772Y009629D01*
X023838Y009595D01*
X023897Y009552D01*
X023949Y009500D01*
X023992Y009441D01*
X024026Y009375D01*
X024048Y009305D01*
X024060Y009233D01*
X024060Y009209D01*
X023319Y009209D01*
X023319Y009182D01*
X023319Y008729D01*
X023630Y008729D01*
X023702Y008740D01*
X023772Y008763D01*
X023838Y008796D01*
X023897Y008840D01*
X023949Y008892D01*
X023992Y008951D01*
X024026Y009016D01*
X024048Y009086D01*
X024060Y009159D01*
X024060Y009182D01*
X023319Y009182D01*
X023292Y009182D01*
X023292Y008729D01*
X022982Y008729D01*
X022910Y008740D01*
X022840Y008763D01*
X022774Y008796D01*
X022715Y008840D01*
X022663Y008892D01*
X022620Y008951D01*
X022586Y009016D01*
X022565Y009081D01*
X022487Y009003D01*
X022458Y008991D01*
X022471Y008978D01*
X022529Y008838D01*
X022529Y008687D01*
X022471Y008547D01*
X022364Y008441D01*
X022224Y008383D01*
X022073Y008383D01*
X022047Y008394D01*
X022057Y008369D01*
X022057Y008172D01*
X021982Y007990D01*
X021842Y007851D01*
X021660Y007776D01*
X021463Y007776D01*
X021281Y007851D01*
X021217Y007915D01*
X021217Y007626D01*
X021281Y007690D01*
X021463Y007766D01*
X021660Y007766D01*
X021842Y007690D01*
X021982Y007551D01*
X022158Y007551D01*
X022045Y007438D02*
X022028Y007438D01*
X021982Y007551D01*
X022045Y007438D02*
X022588Y007980D01*
X022532Y008115D01*
X022532Y008308D01*
X022606Y008487D01*
X022743Y008624D01*
X022922Y008699D01*
X023690Y008699D01*
X023869Y008624D01*
X024006Y008487D01*
X024080Y008308D01*
X024080Y008115D01*
X024006Y007936D01*
X023888Y007818D01*
X024006Y007700D01*
X024080Y007521D01*
X024080Y007327D01*
X024006Y007148D01*
X023869Y007011D01*
X023690Y006937D01*
X022922Y006937D01*
X022743Y007011D01*
X022606Y007148D01*
X022564Y007250D01*
X022360Y007046D01*
X022290Y006976D01*
X022198Y006938D01*
X021929Y006938D01*
X021842Y006851D01*
X021660Y006776D01*
X021463Y006776D01*
X021281Y006851D01*
X021217Y006915D01*
X021217Y006626D01*
X021281Y006690D01*
X021463Y006766D01*
X021660Y006766D01*
X021842Y006690D01*
X021982Y006551D01*
X021994Y006522D01*
X022035Y006621D01*
X022125Y006711D01*
X022242Y006760D01*
X022650Y006760D01*
X022743Y006853D01*
X022922Y006927D01*
X023690Y006927D01*
X023869Y006853D01*
X024006Y006716D01*
X024080Y006537D01*
X024080Y006343D01*
X024006Y006164D01*
X023889Y006047D01*
X024184Y006169D01*
X024562Y006169D01*
X024911Y006025D01*
X025178Y005758D01*
X025216Y005666D01*
X025216Y009970D01*
X025178Y009878D01*
X024911Y009611D01*
X024562Y009466D01*
X024184Y009466D01*
X023835Y009611D01*
X023568Y009878D01*
X023423Y010227D01*
X023423Y010605D01*
X023568Y010954D01*
X023835Y011222D01*
X024184Y011366D01*
X024562Y011366D01*
X024911Y011222D01*
X025178Y010954D01*
X025216Y010863D01*
X025216Y014335D01*
X025132Y014022D01*
X024939Y013687D01*
X024665Y013413D01*
X024330Y013220D01*
X023956Y013119D01*
X023569Y013119D01*
X023195Y013220D01*
X022860Y013413D01*
X022586Y013687D01*
X022393Y014022D01*
X022293Y014396D01*
X022293Y014783D01*
X022393Y015157D01*
X022586Y015492D01*
X022860Y015766D01*
X023195Y015959D01*
X023569Y016059D01*
X023956Y016059D01*
X024330Y015959D01*
X024665Y015766D01*
X024939Y015492D01*
X025132Y015157D01*
X025216Y014844D01*
X025216Y016122D01*
X006563Y016122D01*
X006662Y016095D01*
X007084Y015852D01*
X007428Y015507D01*
X007672Y015085D01*
X007798Y014615D01*
X007798Y014128D01*
X007672Y013657D01*
X007428Y013235D01*
X007084Y012891D01*
X006662Y012647D01*
X006191Y012521D01*
X005704Y012521D01*
X005234Y012647D01*
X004812Y012891D01*
X004467Y013235D01*
X004224Y013657D01*
X004098Y014128D01*
X004098Y014615D01*
X004224Y015085D01*
X004467Y015507D01*
X004812Y015852D01*
X005234Y016095D01*
X005332Y016122D01*
X000301Y016122D01*
X000301Y014991D01*
X000346Y015157D01*
X000539Y015492D01*
X000813Y015766D01*
X001148Y015959D01*
X001522Y016059D01*
X001909Y016059D01*
X002283Y015959D01*
X002618Y015766D01*
X002892Y015492D01*
X003085Y015157D01*
X003185Y014783D01*
X003185Y014396D01*
X003085Y014022D01*
X002892Y013687D01*
X002618Y013413D01*
X002283Y013220D01*
X001909Y013119D01*
X001522Y013119D01*
X001148Y013220D01*
X000813Y013413D01*
X000539Y013687D01*
X000346Y014022D01*
X000301Y014188D01*
X000301Y002393D01*
X000346Y002558D01*
X000539Y002894D01*
X000813Y003167D01*
X001148Y003361D01*
X001522Y003461D01*
X001909Y003461D01*
X002283Y003361D01*
X002618Y003167D01*
X002892Y002894D01*
X003010Y002689D01*
X003010Y003958D01*
X002178Y003958D01*
X002074Y003855D01*
X001890Y003778D01*
X001092Y003778D01*
X000908Y003855D01*
X000767Y003995D01*
X000691Y004179D01*
X000691Y004378D01*
X000767Y004562D01*
X000908Y004702D01*
X001092Y004778D01*
X001890Y004778D01*
X002074Y004702D01*
X002178Y004598D01*
X003393Y004598D01*
X003511Y004550D01*
X003601Y004460D01*
X003650Y004342D01*
X003650Y000972D01*
X003816Y000972D01*
X003685Y001104D01*
X003685Y001485D01*
X003954Y001754D01*
X004335Y001754D01*
X004475Y001614D01*
X005842Y001614D01*
X005842Y001815D01*
X006112Y002085D01*
X006493Y002085D01*
X006762Y001815D01*
X006762Y001434D01*
X006622Y001294D01*
X006622Y001231D01*
X006573Y001113D01*
X006483Y001023D01*
X006366Y000974D01*
X004475Y000974D01*
X004473Y000972D01*
X014485Y000972D01*
X014377Y001080D01*
X014377Y001329D01*
X012577Y001329D01*
X012437Y001189D01*
X012056Y001189D01*
X011787Y001458D01*
X011787Y001839D01*
X012056Y002109D01*
X012437Y002109D01*
X012577Y001969D01*
X014901Y001969D01*
X015019Y001920D01*
X015109Y001830D01*
X015157Y001712D01*
X015157Y001601D01*
X015297Y001461D01*
X015297Y001080D01*
X015190Y000972D01*
X017485Y000972D01*
X017377Y001080D01*
X017377Y001461D01*
X017647Y001731D01*
X018028Y001731D01*
X018168Y001591D01*
X018182Y001591D01*
X018281Y001690D01*
X018463Y001766D01*
X018660Y001766D01*
X018842Y001690D01*
X018982Y001551D01*
X019057Y001369D01*
X019057Y001172D01*
X018982Y000990D01*
X018964Y000972D01*
X021160Y000972D01*
X021142Y000990D01*
X021067Y001172D01*
X021067Y001369D01*
X021142Y001551D01*
X021281Y001690D01*
X021463Y001766D01*
X021660Y001766D01*
X021842Y001690D01*
X021868Y001665D01*
X021868Y001877D01*
X021842Y001851D01*
X021660Y001776D01*
X021463Y001776D01*
X021281Y001851D01*
X021142Y001990D01*
X021067Y002172D01*
X021067Y002369D01*
X021111Y002475D01*
X021110Y002508D01*
X021111Y002511D01*
X021111Y002754D01*
X021012Y002853D01*
X021012Y002203D01*
X020963Y002085D01*
X020873Y001995D01*
X020755Y001947D01*
X018938Y001947D01*
X018842Y001851D01*
X018660Y001776D01*
X018463Y001776D01*
X018281Y001851D01*
X018142Y001990D01*
X018067Y002172D01*
X018067Y002310D01*
X018000Y002244D01*
X017619Y002244D01*
X017350Y002513D01*
X017350Y002894D01*
X017619Y003164D01*
X017889Y003164D01*
X018067Y003298D01*
X018067Y003369D01*
X018142Y003551D01*
X018281Y003690D01*
X018463Y003766D01*
X018660Y003766D01*
X018842Y003690D01*
X018982Y003551D01*
X019057Y003369D01*
X019057Y003172D01*
X019032Y003430D02*
X020372Y003430D01*
X020372Y003588D02*
X018944Y003588D01*
X018842Y003851D02*
X018660Y003776D01*
X018463Y003776D01*
X018281Y003851D01*
X018142Y003990D01*
X018067Y004172D01*
X018067Y004369D01*
X018142Y004551D01*
X018167Y004576D01*
X017528Y004576D01*
X016455Y003503D01*
X016385Y003433D01*
X016293Y003395D01*
X014562Y003395D01*
X014490Y003322D01*
X014350Y003265D01*
X014199Y003265D01*
X014059Y003322D01*
X013952Y003429D01*
X013894Y003569D01*
X013894Y003720D01*
X013952Y003860D01*
X014059Y003967D01*
X014190Y004021D01*
X014008Y004202D01*
X014008Y004385D01*
X014448Y004385D01*
X014448Y004385D01*
X014448Y004825D01*
X014630Y004825D01*
X014888Y004567D01*
X014888Y004385D01*
X014448Y004385D01*
X014448Y004385D01*
X014448Y004825D01*
X014265Y004825D01*
X014008Y004567D01*
X014008Y004385D01*
X014448Y004385D01*
X014888Y004385D01*
X014888Y004202D01*
X014630Y003945D01*
X014512Y003945D01*
X014562Y003895D01*
X016139Y003895D01*
X016753Y004508D01*
X016294Y004508D01*
X016139Y004572D01*
X016021Y004690D01*
X015957Y004844D01*
X015957Y005012D01*
X016004Y005125D01*
X014838Y005125D01*
X014638Y004925D01*
X014257Y004925D01*
X013988Y005194D01*
X013988Y005575D01*
X014257Y005845D01*
X014638Y005845D01*
X014838Y005645D01*
X016192Y005645D01*
X016288Y005605D01*
X016545Y005348D01*
X016650Y005348D01*
X016793Y005491D01*
X016888Y005531D01*
X018134Y005531D01*
X018142Y005551D01*
X018281Y005690D01*
X018463Y005766D01*
X018660Y005766D01*
X018842Y005690D01*
X018982Y005551D01*
X019057Y005369D01*
X019057Y005172D01*
X019038Y005127D01*
X019059Y005148D01*
X019199Y005206D01*
X019350Y005206D01*
X019490Y005148D01*
X019597Y005041D01*
X019654Y004901D01*
X019654Y004750D01*
X019597Y004610D01*
X019490Y004504D01*
X019350Y004446D01*
X019199Y004446D01*
X019059Y004504D01*
X018987Y004576D01*
X018957Y004576D01*
X018982Y004551D01*
X019057Y004369D01*
X019057Y004172D01*
X018982Y003990D01*
X018842Y003851D01*
X018897Y003905D02*
X020372Y003905D01*
X020372Y003747D02*
X018706Y003747D01*
X018418Y003747D02*
X016699Y003747D01*
X016857Y003905D02*
X018227Y003905D01*
X018112Y004064D02*
X017016Y004064D01*
X017174Y004222D02*
X018067Y004222D01*
X018072Y004381D02*
X017333Y004381D01*
X017491Y004539D02*
X018137Y004539D01*
X018986Y004539D02*
X019023Y004539D01*
X019052Y004381D02*
X020372Y004381D01*
X020372Y004539D02*
X019525Y004539D01*
X019633Y004698D02*
X020372Y004698D01*
X020372Y004856D02*
X019654Y004856D01*
X019607Y005015D02*
X020372Y005015D01*
X020372Y005173D02*
X019428Y005173D01*
X019121Y005173D02*
X019057Y005173D01*
X019057Y005332D02*
X020372Y005332D01*
X020372Y005490D02*
X019007Y005490D01*
X018884Y005649D02*
X020372Y005649D01*
X020372Y005807D02*
X018737Y005807D01*
X018660Y005776D02*
X018463Y005776D01*
X018281Y005851D01*
X018142Y005990D01*
X018134Y006011D01*
X017203Y006011D01*
X017108Y006050D01*
X016650Y006508D01*
X016545Y006508D01*
X016363Y006326D01*
X016267Y006286D01*
X014819Y006286D01*
X014619Y006086D01*
X014237Y006086D01*
X013968Y006356D01*
X013968Y006737D01*
X014237Y007006D01*
X014619Y007006D01*
X014819Y006806D01*
X015973Y006806D01*
X015957Y006844D01*
X015957Y007012D01*
X016021Y007166D01*
X016139Y007284D01*
X016294Y007348D01*
X016901Y007348D01*
X017055Y007284D01*
X017173Y007166D01*
X017237Y007012D01*
X017237Y006844D01*
X017182Y006711D01*
X017362Y006531D01*
X018134Y006531D01*
X018142Y006551D01*
X018281Y006690D01*
X018463Y006766D01*
X018660Y006766D01*
X018842Y006690D01*
X018982Y006551D01*
X019057Y006369D01*
X019057Y006172D01*
X018982Y005990D01*
X018842Y005851D01*
X018660Y005776D01*
X018387Y005807D02*
X014676Y005807D01*
X014834Y005649D02*
X018240Y005649D01*
X018167Y005966D02*
X011505Y005966D01*
X011505Y005931D02*
X011505Y006082D01*
X011447Y006222D01*
X011340Y006329D01*
X011200Y006387D01*
X011049Y006387D01*
X010910Y006329D01*
X010837Y006257D01*
X009050Y006257D01*
X008978Y006329D01*
X008838Y006387D01*
X008743Y006387D01*
X008786Y006405D01*
X008876Y006495D01*
X008925Y006612D01*
X008925Y010415D01*
X009023Y010415D01*
X009023Y010384D01*
X009093Y010215D01*
X009223Y010085D01*
X009392Y010015D01*
X009575Y010015D01*
X009744Y010085D01*
X009873Y010215D01*
X009943Y010384D01*
X009943Y011087D01*
X009929Y011120D01*
X010037Y011120D01*
X010023Y011087D01*
X010023Y010384D01*
X010093Y010215D01*
X010223Y010085D01*
X010392Y010015D01*
X010575Y010015D01*
X010744Y010085D01*
X010873Y010215D01*
X010943Y010384D01*
X010943Y011087D01*
X010873Y011256D01*
X010744Y011385D01*
X010598Y011445D01*
X010598Y014107D01*
X010702Y014211D01*
X010778Y014395D01*
X010778Y015194D01*
X010712Y015353D01*
X010873Y015353D01*
X010868Y015346D01*
X010834Y015278D01*
X010810Y015207D01*
X010798Y015132D01*
X010798Y014814D01*
X011258Y014814D01*
X011258Y014774D01*
X010798Y014774D01*
X010798Y014456D01*
X010810Y014382D01*
X010834Y014310D01*
X010868Y014243D01*
X010912Y014181D01*
X010966Y014128D01*
X011027Y014084D01*
X011094Y014049D01*
X011166Y014026D01*
X011241Y014014D01*
X011258Y014014D01*
X011258Y014774D01*
X011298Y014774D01*
X011298Y014014D01*
X011316Y014014D01*
X011391Y014026D01*
X011406Y014031D01*
X011375Y013956D01*
X011375Y013805D01*
X011433Y013666D01*
X011540Y013559D01*
X011679Y013501D01*
X011801Y013501D01*
X013315Y012125D01*
X013345Y012094D01*
X013351Y012092D01*
X013356Y012088D01*
X013397Y012073D01*
X013437Y012056D01*
X013444Y012056D01*
X013449Y012054D01*
X013493Y012056D01*
X018115Y012056D01*
X018142Y011990D01*
X018281Y011851D01*
X018463Y011776D01*
X018660Y011776D01*
X018842Y011851D01*
X018982Y011990D01*
X019057Y012172D01*
X019057Y012288D01*
X019143Y012202D01*
X019143Y009444D01*
X019070Y009372D01*
X019057Y009339D01*
X019057Y009369D01*
X018982Y009551D01*
X018842Y009690D01*
X018660Y009766D01*
X018463Y009766D01*
X018281Y009690D01*
X018142Y009551D01*
X018067Y009369D01*
X018067Y009172D01*
X018142Y008990D01*
X018281Y008851D01*
X018463Y008776D01*
X018660Y008776D01*
X018842Y008851D01*
X018982Y008990D01*
X019016Y009073D01*
X019070Y008941D01*
X019177Y008834D01*
X019317Y008776D01*
X019468Y008776D01*
X019608Y008834D01*
X019715Y008941D01*
X019773Y009081D01*
X019773Y009232D01*
X019715Y009372D01*
X019643Y009444D01*
X019643Y012356D01*
X019605Y012448D01*
X019534Y012518D01*
X019141Y012912D01*
X019049Y012950D01*
X018941Y012950D01*
X018982Y012990D01*
X019057Y013172D01*
X019057Y013369D01*
X018982Y013551D01*
X018842Y013690D01*
X018660Y013766D01*
X018463Y013766D01*
X018281Y013690D01*
X018142Y013551D01*
X018067Y013369D01*
X018067Y013172D01*
X018142Y012990D01*
X018183Y012950D01*
X018049Y012950D01*
X018049Y013308D01*
X017780Y013577D01*
X017399Y013577D01*
X017129Y013308D01*
X017129Y012950D01*
X015049Y012950D01*
X015049Y013308D01*
X014890Y013467D01*
X014890Y013944D01*
X015030Y014084D01*
X015030Y014465D01*
X014890Y014605D01*
X014890Y014781D01*
X021242Y014781D01*
X021242Y014651D01*
X021142Y014551D01*
X021067Y014369D01*
X021067Y014172D01*
X021142Y013990D01*
X021281Y013851D01*
X021463Y013776D01*
X021660Y013776D01*
X021842Y013851D01*
X021982Y013990D01*
X022057Y014172D01*
X022057Y014369D01*
X021982Y014551D01*
X021882Y014651D01*
X021882Y015165D01*
X021833Y015283D01*
X021743Y015373D01*
X021626Y015421D01*
X015354Y015421D01*
X015403Y015537D01*
X015403Y015689D01*
X015345Y015828D01*
X015238Y015935D01*
X015098Y015993D01*
X014947Y015993D01*
X014807Y015935D01*
X014745Y015873D01*
X008160Y015873D01*
X008064Y015833D01*
X007991Y015760D01*
X007951Y015665D01*
X007951Y015561D01*
X007961Y015537D01*
X007961Y010587D01*
X002189Y010587D01*
X002074Y010702D01*
X001890Y010778D01*
X001092Y010778D01*
X000908Y010702D01*
X000767Y010562D01*
X000691Y010378D01*
X000691Y010179D01*
X000767Y009995D01*
X000908Y009855D01*
X001092Y009778D01*
X000908Y009702D01*
X000767Y009562D01*
X000691Y009378D01*
X000691Y009179D01*
X000767Y008995D01*
X000908Y008855D01*
X001092Y008778D01*
X000908Y008702D01*
X000767Y008562D01*
X000691Y008378D01*
X000691Y008179D01*
X000767Y007995D01*
X000908Y007855D01*
X001092Y007778D01*
X000908Y007702D01*
X000767Y007562D01*
X000691Y007378D01*
X000691Y007179D01*
X000767Y006995D01*
X000908Y006855D01*
X001092Y006778D01*
X000908Y006702D01*
X000767Y006562D01*
X000691Y006378D01*
X000691Y006179D01*
X000767Y005995D01*
X000908Y005855D01*
X001092Y005778D01*
X001890Y005778D01*
X002074Y005855D01*
X002215Y005995D01*
X002291Y006179D01*
X002291Y006378D01*
X002215Y006562D01*
X002074Y006702D01*
X001890Y006778D01*
X001092Y006778D01*
X001890Y006778D01*
X002074Y006855D01*
X002215Y006995D01*
X002291Y007179D01*
X002291Y007378D01*
X002215Y007562D01*
X002074Y007702D01*
X001890Y007778D01*
X001092Y007778D01*
X001890Y007778D01*
X002074Y007855D01*
X002215Y007995D01*
X002291Y008179D01*
X002291Y008378D01*
X002217Y008556D01*
X002961Y009300D01*
X007332Y009300D01*
X007332Y009095D01*
X007231Y009195D01*
X007047Y009271D01*
X006848Y009271D01*
X006664Y009195D01*
X006524Y009055D01*
X006448Y008871D01*
X006448Y008072D01*
X006524Y007888D01*
X006539Y007873D01*
X006515Y007883D01*
X006366Y007883D01*
X006372Y007888D01*
X006448Y008072D01*
X006448Y008871D01*
X006372Y009055D01*
X006231Y009195D01*
X006047Y009271D01*
X005848Y009271D01*
X005664Y009195D01*
X005524Y009055D01*
X005448Y008871D01*
X005448Y008072D01*
X005524Y007888D01*
X005640Y007772D01*
X005640Y006995D01*
X005500Y006855D01*
X005500Y006474D01*
X005640Y006334D01*
X005640Y005309D01*
X005623Y005292D01*
X005561Y005143D01*
X005561Y004981D01*
X005623Y004832D01*
X005737Y004717D01*
X005887Y004655D01*
X006048Y004655D01*
X006198Y004717D01*
X006312Y004832D01*
X006374Y004981D01*
X006374Y005143D01*
X006312Y005292D01*
X006280Y005325D01*
X006280Y006334D01*
X006302Y006356D01*
X008613Y006356D01*
X008547Y006329D01*
X008441Y006222D01*
X008383Y006082D01*
X008383Y005931D01*
X008441Y005792D01*
X008547Y005685D01*
X008687Y005627D01*
X008838Y005627D01*
X008978Y005685D01*
X009050Y005757D01*
X010837Y005757D01*
X010910Y005685D01*
X011049Y005627D01*
X011200Y005627D01*
X011340Y005685D01*
X011447Y005792D01*
X011505Y005931D01*
X011454Y005807D02*
X014220Y005807D01*
X014061Y005649D02*
X011254Y005649D01*
X010996Y005649D02*
X008891Y005649D01*
X008634Y005649D02*
X006280Y005649D01*
X006280Y005807D02*
X008434Y005807D01*
X008383Y005966D02*
X006280Y005966D01*
X006280Y006124D02*
X008400Y006124D01*
X008501Y006283D02*
X006280Y006283D01*
X005640Y006283D02*
X005200Y006283D01*
X005142Y006224D02*
X004960Y006224D01*
X004960Y006664D01*
X004960Y006664D01*
X005400Y006664D01*
X005400Y006482D01*
X005142Y006224D01*
X004960Y006224D02*
X004960Y006664D01*
X004960Y006664D01*
X005400Y006664D01*
X005400Y006847D01*
X005142Y007104D01*
X004960Y007104D01*
X004960Y006664D01*
X004960Y006664D01*
X004520Y006664D01*
X004520Y006482D01*
X004777Y006224D01*
X004960Y006224D01*
X004960Y006283D02*
X004960Y006283D01*
X004960Y006441D02*
X004960Y006441D01*
X004960Y006600D02*
X004960Y006600D01*
X004960Y006664D02*
X004960Y006664D01*
X004960Y007104D01*
X004777Y007104D01*
X004520Y006847D01*
X004520Y006664D01*
X004960Y006664D01*
X004960Y006758D02*
X004960Y006758D01*
X004960Y006917D02*
X004960Y006917D01*
X004960Y007075D02*
X004960Y007075D01*
X005171Y007075D02*
X005640Y007075D01*
X005640Y007234D02*
X002291Y007234D01*
X002285Y007392D02*
X005640Y007392D01*
X005640Y007551D02*
X002219Y007551D01*
X002057Y007709D02*
X004816Y007709D01*
X004835Y007703D02*
X004910Y007691D01*
X004928Y007691D01*
X004928Y008451D01*
X004968Y008451D01*
X004968Y008491D01*
X005428Y008491D01*
X005428Y008809D01*
X005416Y008884D01*
X005393Y008956D01*
X005358Y009023D01*
X005314Y009084D01*
X005260Y009137D01*
X005199Y009182D01*
X005132Y009216D01*
X005060Y009240D01*
X004985Y009251D01*
X004968Y009251D01*
X004968Y008491D01*
X004928Y008491D01*
X004928Y008451D01*
X004468Y008451D01*
X004468Y008134D01*
X004480Y008059D01*
X004503Y007987D01*
X004537Y007920D01*
X004582Y007859D01*
X004635Y007805D01*
X004696Y007761D01*
X004763Y007727D01*
X004835Y007703D01*
X004928Y007709D02*
X004968Y007709D01*
X004968Y007691D02*
X004985Y007691D01*
X005060Y007703D01*
X005132Y007727D01*
X005199Y007761D01*
X005260Y007805D01*
X005314Y007859D01*
X005358Y007920D01*
X005393Y007987D01*
X005416Y008059D01*
X005428Y008134D01*
X005428Y008451D01*
X004968Y008451D01*
X004968Y007691D01*
X005079Y007709D02*
X005640Y007709D01*
X005544Y007868D02*
X005320Y007868D01*
X005405Y008026D02*
X005467Y008026D01*
X005448Y008185D02*
X005428Y008185D01*
X005428Y008343D02*
X005448Y008343D01*
X005448Y008502D02*
X005428Y008502D01*
X005428Y008660D02*
X005448Y008660D01*
X005448Y008819D02*
X005426Y008819D01*
X005382Y008977D02*
X005492Y008977D01*
X005605Y009136D02*
X005262Y009136D01*
X004968Y009136D02*
X004928Y009136D01*
X004928Y009251D02*
X004910Y009251D01*
X004835Y009240D01*
X004763Y009216D01*
X004696Y009182D01*
X004635Y009137D01*
X004582Y009084D01*
X004537Y009023D01*
X004503Y008956D01*
X004480Y008884D01*
X004468Y008809D01*
X004468Y008491D01*
X004928Y008491D01*
X004928Y009251D01*
X004633Y009136D02*
X002796Y009136D01*
X002638Y008977D02*
X004514Y008977D01*
X004469Y008819D02*
X002479Y008819D01*
X002321Y008660D02*
X004468Y008660D01*
X004468Y008502D02*
X002240Y008502D01*
X002291Y008343D02*
X004468Y008343D01*
X004468Y008185D02*
X002291Y008185D01*
X002228Y008026D02*
X004490Y008026D01*
X004575Y007868D02*
X002087Y007868D01*
X000925Y007709D02*
X000301Y007709D01*
X000301Y007551D02*
X000763Y007551D01*
X000697Y007392D02*
X000301Y007392D01*
X000301Y007234D02*
X000691Y007234D01*
X000734Y007075D02*
X000301Y007075D01*
X000301Y006917D02*
X000846Y006917D01*
X001043Y006758D02*
X000301Y006758D01*
X000301Y006600D02*
X000805Y006600D01*
X000717Y006441D02*
X000301Y006441D01*
X000301Y006283D02*
X000691Y006283D01*
X000714Y006124D02*
X000301Y006124D01*
X000301Y005966D02*
X000797Y005966D01*
X001022Y005807D02*
X000301Y005807D01*
X000301Y005649D02*
X000884Y005649D01*
X000878Y005645D02*
X000825Y005591D01*
X000780Y005530D01*
X000746Y005463D01*
X000723Y005391D01*
X000711Y005316D01*
X000711Y005298D01*
X001471Y005298D01*
X001471Y005258D01*
X001511Y005258D01*
X001511Y004798D01*
X001829Y004798D01*
X001903Y004810D01*
X001975Y004834D01*
X002043Y004868D01*
X002104Y004912D01*
X002157Y004966D01*
X002202Y005027D01*
X002236Y005094D01*
X002259Y005166D01*
X002271Y005241D01*
X002271Y005258D01*
X001511Y005258D01*
X001511Y005298D01*
X002271Y005298D01*
X002271Y005316D01*
X002259Y005391D01*
X002236Y005463D01*
X002202Y005530D01*
X002157Y005591D01*
X002104Y005645D01*
X002043Y005689D01*
X001975Y005723D01*
X001903Y005747D01*
X001829Y005758D01*
X001511Y005758D01*
X001511Y005298D01*
X001471Y005298D01*
X001471Y005758D01*
X001153Y005758D01*
X001079Y005747D01*
X001007Y005723D01*
X000939Y005689D01*
X000878Y005645D01*
X000760Y005490D02*
X000301Y005490D01*
X000301Y005332D02*
X000713Y005332D01*
X000711Y005258D02*
X000711Y005241D01*
X000723Y005166D01*
X000746Y005094D01*
X000780Y005027D01*
X000825Y004966D01*
X000878Y004912D01*
X000939Y004868D01*
X001007Y004834D01*
X001079Y004810D01*
X001153Y004798D01*
X001471Y004798D01*
X001471Y005258D01*
X000711Y005258D01*
X000722Y005173D02*
X000301Y005173D01*
X000301Y005015D02*
X000789Y005015D01*
X000962Y004856D02*
X000301Y004856D01*
X000301Y004698D02*
X000903Y004698D01*
X000758Y004539D02*
X000301Y004539D01*
X000301Y004381D02*
X000692Y004381D01*
X000691Y004222D02*
X000301Y004222D01*
X000301Y004064D02*
X000739Y004064D01*
X000857Y003905D02*
X000301Y003905D01*
X000301Y003747D02*
X003010Y003747D01*
X003010Y003905D02*
X002125Y003905D01*
X002026Y003430D02*
X003010Y003430D01*
X003010Y003588D02*
X000301Y003588D01*
X000301Y003430D02*
X001405Y003430D01*
X000993Y003271D02*
X000301Y003271D01*
X000301Y003113D02*
X000758Y003113D01*
X000600Y002954D02*
X000301Y002954D01*
X000301Y002796D02*
X000483Y002796D01*
X000391Y002637D02*
X000301Y002637D01*
X000301Y002479D02*
X000324Y002479D01*
X002438Y003271D02*
X003010Y003271D01*
X003010Y003113D02*
X002673Y003113D01*
X002831Y002954D02*
X003010Y002954D01*
X003010Y002796D02*
X002948Y002796D01*
X003650Y002796D02*
X005862Y002796D01*
X005862Y002807D02*
X005862Y002625D01*
X006302Y002625D01*
X006302Y003065D01*
X006120Y003065D01*
X005862Y002807D01*
X006009Y002954D02*
X003650Y002954D01*
X003650Y003113D02*
X014569Y003113D01*
X014619Y003164D02*
X014479Y003024D01*
X014171Y003024D01*
X014151Y003044D01*
X014001Y003106D01*
X013839Y003106D01*
X013690Y003044D01*
X013575Y002930D01*
X013513Y002781D01*
X013513Y002619D01*
X013575Y002469D01*
X013690Y002355D01*
X013839Y002293D01*
X014001Y002293D01*
X014151Y002355D01*
X014179Y002384D01*
X014479Y002384D01*
X014619Y002244D01*
X015000Y002244D01*
X015270Y002513D01*
X015270Y002894D01*
X015000Y003164D01*
X014619Y003164D01*
X014366Y003271D02*
X018031Y003271D01*
X018092Y003430D02*
X016378Y003430D01*
X016540Y003588D02*
X018180Y003588D01*
X017569Y003113D02*
X015051Y003113D01*
X015210Y002954D02*
X017410Y002954D01*
X017350Y002796D02*
X015270Y002796D01*
X015270Y002637D02*
X017350Y002637D01*
X017384Y002479D02*
X015236Y002479D01*
X015077Y002320D02*
X017543Y002320D01*
X018071Y002162D02*
X003650Y002162D01*
X003650Y002320D02*
X005984Y002320D01*
X005862Y002443D02*
X006120Y002185D01*
X006302Y002185D01*
X006302Y002625D01*
X006302Y002625D01*
X006302Y002625D01*
X006302Y003065D01*
X006484Y003065D01*
X006742Y002807D01*
X006742Y002625D01*
X006302Y002625D01*
X006302Y002625D01*
X005862Y002625D01*
X005862Y002443D01*
X005862Y002479D02*
X003650Y002479D01*
X003650Y002637D02*
X005862Y002637D01*
X006302Y002637D02*
X006302Y002637D01*
X006302Y002625D02*
X006742Y002625D01*
X006742Y002443D01*
X006484Y002185D01*
X006302Y002185D01*
X006302Y002625D01*
X006302Y002625D01*
X006302Y002479D02*
X006302Y002479D01*
X006302Y002320D02*
X006302Y002320D01*
X006620Y002320D02*
X008866Y002320D01*
X008994Y002193D02*
X008736Y002451D01*
X008736Y002633D01*
X009176Y002633D01*
X009176Y003073D01*
X008994Y003073D01*
X008736Y002815D01*
X008736Y002633D01*
X009176Y002633D01*
X009176Y002633D01*
X009176Y003073D01*
X009358Y003073D01*
X009616Y002815D01*
X009616Y002633D01*
X009176Y002633D01*
X009176Y002633D01*
X009176Y002633D01*
X009616Y002633D01*
X009616Y002451D01*
X009358Y002193D01*
X009176Y002193D01*
X009176Y002633D01*
X009176Y002633D01*
X009176Y002193D01*
X008994Y002193D01*
X008986Y002093D02*
X008716Y001823D01*
X008716Y001442D01*
X008986Y001173D01*
X009367Y001173D01*
X009636Y001442D01*
X009636Y001823D01*
X009367Y002093D01*
X008986Y002093D01*
X008896Y002003D02*
X006574Y002003D01*
X006733Y001845D02*
X008738Y001845D01*
X008716Y001686D02*
X006762Y001686D01*
X006762Y001528D02*
X008716Y001528D01*
X008789Y001369D02*
X006697Y001369D01*
X006614Y001211D02*
X008948Y001211D01*
X009405Y001211D02*
X012034Y001211D01*
X011876Y001369D02*
X009563Y001369D01*
X009636Y001528D02*
X011787Y001528D01*
X011787Y001686D02*
X009636Y001686D01*
X009615Y001845D02*
X011793Y001845D01*
X011951Y002003D02*
X009456Y002003D01*
X009486Y002320D02*
X011953Y002320D01*
X012065Y002209D02*
X011807Y002466D01*
X011807Y002648D01*
X012247Y002648D01*
X012247Y002209D01*
X012429Y002209D01*
X012687Y002466D01*
X012687Y002648D01*
X012247Y002648D01*
X012247Y002648D01*
X012247Y002209D01*
X012065Y002209D01*
X012247Y002320D02*
X012247Y002320D01*
X012247Y002479D02*
X012247Y002479D01*
X012247Y002637D02*
X012247Y002637D01*
X012247Y002648D02*
X012247Y002649D01*
X012247Y002649D01*
X012247Y003089D01*
X012429Y003089D01*
X012687Y002831D01*
X012687Y002649D01*
X012247Y002649D01*
X012247Y003089D01*
X012065Y003089D01*
X011807Y002831D01*
X011807Y002649D01*
X012247Y002649D01*
X012247Y002648D01*
X012247Y002796D02*
X012247Y002796D01*
X012247Y002954D02*
X012247Y002954D01*
X011930Y002954D02*
X009477Y002954D01*
X009616Y002796D02*
X011807Y002796D01*
X011807Y002637D02*
X009616Y002637D01*
X009616Y002479D02*
X011807Y002479D01*
X012541Y002320D02*
X013773Y002320D01*
X013571Y002479D02*
X012687Y002479D01*
X012687Y002637D02*
X013513Y002637D01*
X013520Y002796D02*
X012687Y002796D01*
X012563Y002954D02*
X013600Y002954D01*
X014183Y003271D02*
X003650Y003271D01*
X003650Y003430D02*
X013952Y003430D01*
X013894Y003588D02*
X003650Y003588D01*
X003650Y003747D02*
X013906Y003747D01*
X013998Y003905D02*
X004406Y003905D01*
X004335Y003834D02*
X004605Y004104D01*
X004605Y004485D01*
X004465Y004625D01*
X004465Y006015D01*
X004501Y006052D01*
X004563Y006201D01*
X004563Y006363D01*
X004501Y006513D01*
X004387Y006627D01*
X004237Y006689D01*
X004075Y006689D01*
X003926Y006627D01*
X003812Y006513D01*
X003750Y006363D01*
X003750Y006201D01*
X003812Y006052D01*
X003825Y006039D01*
X003825Y004625D01*
X003685Y004485D01*
X003685Y004104D01*
X003954Y003834D01*
X004335Y003834D01*
X004565Y004064D02*
X014146Y004064D01*
X014008Y004222D02*
X004605Y004222D01*
X004605Y004381D02*
X014008Y004381D01*
X014008Y004539D02*
X004550Y004539D01*
X004465Y004698D02*
X005784Y004698D01*
X005612Y004856D02*
X004465Y004856D01*
X004465Y005015D02*
X005561Y005015D01*
X005573Y005173D02*
X004465Y005173D01*
X004465Y005332D02*
X005640Y005332D01*
X005640Y005490D02*
X004465Y005490D01*
X004465Y005649D02*
X005640Y005649D01*
X005640Y005807D02*
X004465Y005807D01*
X004465Y005966D02*
X005640Y005966D01*
X005640Y006124D02*
X004531Y006124D01*
X004563Y006283D02*
X004719Y006283D01*
X004560Y006441D02*
X004531Y006441D01*
X004520Y006600D02*
X004414Y006600D01*
X004520Y006758D02*
X001939Y006758D01*
X002136Y006917D02*
X004590Y006917D01*
X004748Y007075D02*
X002248Y007075D01*
X002177Y006600D02*
X003899Y006600D01*
X003782Y006441D02*
X002265Y006441D01*
X002291Y006283D02*
X003750Y006283D01*
X003782Y006124D02*
X002268Y006124D01*
X002185Y005966D02*
X003825Y005966D01*
X003825Y005807D02*
X001960Y005807D01*
X002098Y005649D02*
X003825Y005649D01*
X003825Y005490D02*
X002222Y005490D01*
X002269Y005332D02*
X003825Y005332D01*
X003825Y005173D02*
X002260Y005173D01*
X002193Y005015D02*
X003825Y005015D01*
X003825Y004856D02*
X002020Y004856D01*
X002079Y004698D02*
X003825Y004698D01*
X003739Y004539D02*
X003521Y004539D01*
X003634Y004381D02*
X003685Y004381D01*
X003685Y004222D02*
X003650Y004222D01*
X003650Y004064D02*
X003724Y004064D01*
X003650Y003905D02*
X003883Y003905D01*
X006151Y004698D02*
X014139Y004698D01*
X014448Y004698D02*
X014448Y004698D01*
X014448Y004539D02*
X014448Y004539D01*
X014448Y004385D02*
X014448Y004385D01*
X014757Y004698D02*
X016018Y004698D01*
X015957Y004856D02*
X006322Y004856D01*
X006374Y005015D02*
X014167Y005015D01*
X014009Y005173D02*
X006361Y005173D01*
X006280Y005332D02*
X013988Y005332D01*
X013988Y005490D02*
X006280Y005490D01*
X005532Y006441D02*
X005359Y006441D01*
X005400Y006600D02*
X005500Y006600D01*
X005500Y006758D02*
X005400Y006758D01*
X005329Y006917D02*
X005562Y006917D01*
X006783Y007668D02*
X006767Y007705D01*
X006848Y007671D01*
X007047Y007671D01*
X007231Y007747D01*
X007255Y007771D01*
X007259Y007760D01*
X007366Y007653D01*
X007506Y007595D01*
X007657Y007595D01*
X007797Y007653D01*
X007904Y007760D01*
X007962Y007900D01*
X007962Y008051D01*
X007904Y008191D01*
X007832Y008263D01*
X007832Y009600D01*
X007794Y009692D01*
X007723Y009762D01*
X007631Y009800D01*
X002807Y009800D01*
X002716Y009762D01*
X002291Y009337D01*
X002291Y009378D01*
X002215Y009562D01*
X002074Y009702D01*
X001890Y009778D01*
X001092Y009778D01*
X001890Y009778D01*
X002074Y009855D01*
X002215Y009995D01*
X002253Y010087D01*
X008285Y010087D01*
X008285Y010097D02*
X008285Y006996D01*
X007913Y006996D01*
X007962Y007112D01*
X007962Y007263D01*
X007904Y007403D01*
X007797Y007510D01*
X007657Y007568D01*
X007506Y007568D01*
X007366Y007510D01*
X007364Y007507D01*
X006783Y007668D01*
X007139Y007709D02*
X007310Y007709D01*
X007206Y007551D02*
X007465Y007551D01*
X007698Y007551D02*
X008285Y007551D01*
X008285Y007709D02*
X007853Y007709D01*
X007948Y007868D02*
X008285Y007868D01*
X008285Y008026D02*
X007962Y008026D01*
X007906Y008185D02*
X008285Y008185D01*
X008285Y008343D02*
X007832Y008343D01*
X007832Y008502D02*
X008285Y008502D01*
X008285Y008660D02*
X007832Y008660D01*
X007832Y008819D02*
X008285Y008819D01*
X008285Y008977D02*
X007832Y008977D01*
X007832Y009136D02*
X008285Y009136D01*
X008285Y009294D02*
X007832Y009294D01*
X007832Y009453D02*
X008285Y009453D01*
X008285Y009611D02*
X007827Y009611D01*
X007704Y009770D02*
X008285Y009770D01*
X008285Y009928D02*
X002148Y009928D01*
X002253Y010087D02*
X008261Y010087D01*
X008285Y010097D01*
X008925Y010087D02*
X009221Y010087D01*
X009080Y010245D02*
X008925Y010245D01*
X008925Y010404D02*
X009023Y010404D01*
X008925Y009928D02*
X010996Y009928D01*
X010987Y009838D02*
X010891Y009878D01*
X010729Y009878D01*
X010580Y009816D01*
X010465Y009702D01*
X010403Y009552D01*
X010403Y009390D01*
X010465Y009241D01*
X010520Y009186D01*
X010446Y008455D01*
X010392Y008455D01*
X010223Y008385D01*
X010093Y008256D01*
X010023Y008087D01*
X010023Y007384D01*
X010093Y007215D01*
X010223Y007085D01*
X010392Y007015D01*
X010575Y007015D01*
X010744Y007085D01*
X010873Y007215D01*
X010943Y007384D01*
X010943Y008087D01*
X010934Y008108D01*
X010987Y008632D01*
X011083Y008592D01*
X011245Y008592D01*
X011395Y008654D01*
X011509Y008769D01*
X011571Y008918D01*
X011571Y009080D01*
X011509Y009229D01*
X011454Y009284D01*
X011527Y010015D01*
X011575Y010015D01*
X011744Y010085D01*
X011873Y010215D01*
X011943Y010384D01*
X011943Y011087D01*
X011873Y011256D01*
X011744Y011385D01*
X011575Y011455D01*
X011392Y011455D01*
X011223Y011385D01*
X011093Y011256D01*
X011023Y011087D01*
X011023Y010384D01*
X011038Y010348D01*
X010987Y009838D01*
X011012Y010087D02*
X010745Y010087D01*
X010886Y010245D02*
X011028Y010245D01*
X011023Y010404D02*
X010943Y010404D01*
X010943Y010562D02*
X011023Y010562D01*
X011023Y010721D02*
X010943Y010721D01*
X010943Y010879D02*
X011023Y010879D01*
X011023Y011038D02*
X010943Y011038D01*
X010898Y011196D02*
X011069Y011196D01*
X011192Y011355D02*
X010774Y011355D01*
X010598Y011513D02*
X013862Y011513D01*
X013862Y011463D02*
X013932Y011293D01*
X014061Y011164D01*
X014230Y011094D01*
X014933Y011094D01*
X015102Y011164D01*
X015232Y011293D01*
X015302Y011463D01*
X015302Y011646D01*
X015232Y011815D01*
X015102Y011944D01*
X014933Y012014D01*
X014230Y012014D01*
X014061Y011944D01*
X013932Y011815D01*
X013862Y011646D01*
X013862Y011463D01*
X013906Y011355D02*
X012774Y011355D01*
X012744Y011385D02*
X012575Y011455D01*
X012392Y011455D01*
X012223Y011385D01*
X012093Y011256D01*
X012023Y011087D01*
X012023Y010384D01*
X012093Y010215D01*
X012223Y010085D01*
X012392Y010015D01*
X012575Y010015D01*
X012744Y010085D01*
X012873Y010215D01*
X012943Y010384D01*
X012943Y011087D01*
X012873Y011256D01*
X012744Y011385D01*
X012898Y011196D02*
X014029Y011196D01*
X013872Y011672D02*
X010598Y011672D01*
X010598Y011830D02*
X013947Y011830D01*
X014169Y011989D02*
X010598Y011989D01*
X010598Y012147D02*
X013290Y012147D01*
X013116Y012306D02*
X010598Y012306D01*
X010598Y012464D02*
X012941Y012464D01*
X012767Y012623D02*
X010598Y012623D01*
X010598Y012781D02*
X012593Y012781D01*
X012418Y012940D02*
X010598Y012940D01*
X010598Y013098D02*
X012244Y013098D01*
X012070Y013257D02*
X010598Y013257D01*
X010598Y013415D02*
X011895Y013415D01*
X011524Y013574D02*
X010598Y013574D01*
X010598Y013732D02*
X011405Y013732D01*
X011375Y013891D02*
X010598Y013891D01*
X010598Y014049D02*
X011094Y014049D01*
X011258Y014049D02*
X011298Y014049D01*
X011298Y014208D02*
X011258Y014208D01*
X011258Y014366D02*
X011298Y014366D01*
X011298Y014525D02*
X011258Y014525D01*
X011258Y014683D02*
X011298Y014683D01*
X011298Y014774D02*
X011298Y014814D01*
X011758Y014814D01*
X011758Y015132D01*
X011747Y015207D01*
X011723Y015278D01*
X011689Y015346D01*
X011684Y015353D01*
X011844Y015353D01*
X011778Y015194D01*
X011778Y014395D01*
X011835Y014259D01*
X011830Y014261D01*
X011698Y014261D01*
X011723Y014310D01*
X011747Y014382D01*
X011758Y014456D01*
X011758Y014774D01*
X011298Y014774D01*
X011758Y014842D02*
X011778Y014842D01*
X011778Y015000D02*
X011758Y015000D01*
X011754Y015159D02*
X011778Y015159D01*
X011830Y015317D02*
X011703Y015317D01*
X010853Y015317D02*
X010727Y015317D01*
X010778Y015159D02*
X010803Y015159D01*
X010798Y015000D02*
X010778Y015000D01*
X010778Y014842D02*
X010798Y014842D01*
X010798Y014683D02*
X010778Y014683D01*
X010778Y014525D02*
X010798Y014525D01*
X010815Y014366D02*
X010767Y014366D01*
X010699Y014208D02*
X010893Y014208D01*
X011742Y014366D02*
X011790Y014366D01*
X011778Y014525D02*
X011758Y014525D01*
X011758Y014683D02*
X011778Y014683D01*
X014890Y014683D02*
X017328Y014683D01*
X017379Y014734D02*
X017110Y014465D01*
X017110Y014084D01*
X017379Y013814D01*
X017760Y013814D01*
X018030Y014084D01*
X018030Y014465D01*
X017760Y014734D01*
X017379Y014734D01*
X017170Y014525D02*
X014970Y014525D01*
X015030Y014366D02*
X017110Y014366D01*
X017110Y014208D02*
X015030Y014208D01*
X014995Y014049D02*
X017144Y014049D01*
X017303Y013891D02*
X014890Y013891D01*
X014890Y013732D02*
X018383Y013732D01*
X018184Y013776D02*
X018067Y013893D01*
X018067Y014648D01*
X018184Y014766D01*
X018940Y014766D01*
X019057Y014648D01*
X019057Y013893D01*
X018940Y013776D01*
X018184Y013776D01*
X018069Y013891D02*
X017837Y013891D01*
X017995Y014049D02*
X018067Y014049D01*
X018067Y014208D02*
X018030Y014208D01*
X018030Y014366D02*
X018067Y014366D01*
X018067Y014525D02*
X017970Y014525D01*
X018102Y014683D02*
X017812Y014683D01*
X019022Y014683D02*
X021242Y014683D01*
X021131Y014525D02*
X019057Y014525D01*
X019057Y014366D02*
X021067Y014366D01*
X021067Y014208D02*
X019057Y014208D01*
X019057Y014049D02*
X021118Y014049D01*
X021242Y013891D02*
X019055Y013891D01*
X018741Y013732D02*
X021446Y013732D01*
X021451Y013734D02*
X021380Y013711D01*
X021313Y013677D01*
X021252Y013633D01*
X021200Y013580D01*
X021156Y013520D01*
X021122Y013453D01*
X021099Y013382D01*
X021087Y013308D01*
X021087Y013288D01*
X021544Y013288D01*
X021544Y013253D01*
X021087Y013253D01*
X021087Y013233D01*
X021099Y013159D01*
X021122Y013088D01*
X021156Y013022D01*
X021200Y012961D01*
X021252Y012908D01*
X021313Y012864D01*
X021380Y012830D01*
X021451Y012807D01*
X021525Y012796D01*
X021544Y012796D01*
X021544Y013253D01*
X021579Y013253D01*
X021579Y012796D01*
X021599Y012796D01*
X021673Y012807D01*
X021744Y012830D01*
X021811Y012864D01*
X021871Y012908D01*
X021924Y012961D01*
X021968Y013022D01*
X022002Y013088D01*
X022025Y013159D01*
X022037Y013233D01*
X022037Y013253D01*
X021579Y013253D01*
X021579Y013288D01*
X021544Y013288D01*
X021544Y013746D01*
X021525Y013746D01*
X021451Y013734D01*
X021544Y013732D02*
X021579Y013732D01*
X021579Y013746D02*
X021599Y013746D01*
X021673Y013734D01*
X021744Y013711D01*
X021811Y013677D01*
X021871Y013633D01*
X021924Y013580D01*
X021968Y013520D01*
X022002Y013453D01*
X022025Y013382D01*
X022037Y013308D01*
X022037Y013288D01*
X021579Y013288D01*
X021579Y013746D01*
X021678Y013732D02*
X022560Y013732D01*
X022469Y013891D02*
X021882Y013891D01*
X022006Y014049D02*
X022386Y014049D01*
X022343Y014208D02*
X022057Y014208D01*
X022057Y014366D02*
X022301Y014366D01*
X022293Y014525D02*
X021992Y014525D01*
X021882Y014683D02*
X022293Y014683D01*
X022308Y014842D02*
X021882Y014842D01*
X021882Y015000D02*
X022351Y015000D01*
X022394Y015159D02*
X021882Y015159D01*
X021798Y015317D02*
X022485Y015317D01*
X022577Y015476D02*
X015377Y015476D01*
X015403Y015634D02*
X022729Y015634D01*
X022907Y015793D02*
X015359Y015793D01*
X015199Y015951D02*
X023181Y015951D01*
X024344Y015951D02*
X025216Y015951D01*
X025216Y015793D02*
X024618Y015793D01*
X024797Y015634D02*
X025216Y015634D01*
X025216Y015476D02*
X024948Y015476D01*
X025040Y015317D02*
X025216Y015317D01*
X025216Y015159D02*
X025131Y015159D01*
X025174Y015000D02*
X025216Y015000D01*
X025182Y014208D02*
X025216Y014208D01*
X025216Y014049D02*
X025140Y014049D01*
X025216Y013891D02*
X025057Y013891D01*
X024965Y013732D02*
X025216Y013732D01*
X025216Y013574D02*
X024826Y013574D01*
X024667Y013415D02*
X025216Y013415D01*
X025216Y013257D02*
X024394Y013257D01*
X025216Y013098D02*
X022005Y013098D01*
X021903Y012940D02*
X025216Y012940D01*
X025216Y012781D02*
X019271Y012781D01*
X019429Y012623D02*
X021214Y012623D01*
X021106Y012464D02*
X019588Y012464D01*
X019643Y012306D02*
X021067Y012306D01*
X021077Y012147D02*
X019643Y012147D01*
X019643Y011989D02*
X021144Y011989D01*
X021331Y011830D02*
X019643Y011830D01*
X019643Y011672D02*
X021263Y011672D01*
X021127Y011513D02*
X019643Y011513D01*
X019643Y011355D02*
X021067Y011355D01*
X021067Y011196D02*
X019643Y011196D01*
X019643Y011038D02*
X021123Y011038D01*
X021253Y010879D02*
X019643Y010879D01*
X019643Y010721D02*
X021355Y010721D01*
X021154Y010562D02*
X019643Y010562D01*
X019643Y010404D02*
X021081Y010404D01*
X021067Y010245D02*
X019643Y010245D01*
X019643Y010087D02*
X021102Y010087D01*
X021204Y009928D02*
X019643Y009928D01*
X019643Y009770D02*
X021986Y009770D01*
X021986Y009928D02*
X021920Y009928D01*
X021921Y009611D02*
X021986Y009611D01*
X022626Y009611D02*
X022806Y009611D01*
X022628Y009453D02*
X022626Y009453D01*
X022626Y009770D02*
X023676Y009770D01*
X023547Y009928D02*
X022626Y009928D01*
X022626Y010087D02*
X023481Y010087D01*
X023423Y010245D02*
X022626Y010245D01*
X022626Y010404D02*
X023423Y010404D01*
X023423Y010562D02*
X022626Y010562D01*
X022626Y010721D02*
X023471Y010721D01*
X023536Y010879D02*
X022626Y010879D01*
X022626Y011038D02*
X023651Y011038D01*
X023809Y011196D02*
X022626Y011196D01*
X022626Y011355D02*
X024156Y011355D01*
X024590Y011355D02*
X025216Y011355D01*
X025216Y011513D02*
X022626Y011513D01*
X022626Y011672D02*
X025216Y011672D01*
X025216Y011830D02*
X022709Y011830D01*
X022868Y011989D02*
X023174Y011989D01*
X023067Y012096D02*
X023325Y011838D01*
X023507Y011838D01*
X023689Y011838D01*
X023947Y012096D01*
X023947Y012278D01*
X023507Y012278D01*
X023507Y011838D01*
X023507Y012278D01*
X023507Y012278D01*
X023507Y012278D01*
X023947Y012278D01*
X023947Y012461D01*
X023689Y012718D01*
X023507Y012718D01*
X023507Y012278D01*
X023067Y012278D01*
X023067Y012096D01*
X023067Y012147D02*
X022967Y012147D01*
X022967Y012306D02*
X023067Y012306D01*
X023067Y012278D02*
X023507Y012278D01*
X023507Y012278D01*
X023507Y012278D01*
X023507Y012718D01*
X023325Y012718D01*
X023067Y012461D01*
X023067Y012278D01*
X023070Y012464D02*
X022967Y012464D01*
X022813Y012623D02*
X023229Y012623D01*
X023507Y012623D02*
X023507Y012623D01*
X023507Y012464D02*
X023507Y012464D01*
X023507Y012306D02*
X023507Y012306D01*
X023507Y012147D02*
X023507Y012147D01*
X023507Y011989D02*
X023507Y011989D01*
X023839Y011989D02*
X025216Y011989D01*
X025216Y012147D02*
X023947Y012147D01*
X023947Y012306D02*
X025216Y012306D01*
X025216Y012464D02*
X023943Y012464D01*
X023785Y012623D02*
X025216Y012623D01*
X023131Y013257D02*
X021579Y013257D01*
X021544Y013257D02*
X019057Y013257D01*
X019038Y013415D02*
X021109Y013415D01*
X021195Y013574D02*
X018959Y013574D01*
X019026Y013098D02*
X021118Y013098D01*
X021221Y012940D02*
X019073Y012940D01*
X018097Y013098D02*
X018049Y013098D01*
X018049Y013257D02*
X018067Y013257D01*
X018086Y013415D02*
X017942Y013415D01*
X017783Y013574D02*
X018165Y013574D01*
X017396Y013574D02*
X014890Y013574D01*
X014942Y013415D02*
X017237Y013415D01*
X017129Y013257D02*
X015049Y013257D01*
X015049Y013098D02*
X017129Y013098D01*
X019047Y012147D02*
X019143Y012147D01*
X019143Y011989D02*
X018980Y011989D01*
X019143Y011830D02*
X018792Y011830D01*
X018660Y011766D02*
X018463Y011766D01*
X018283Y011691D01*
X018232Y011815D01*
X018102Y011944D01*
X017933Y012014D01*
X017230Y012014D01*
X017061Y011944D01*
X016932Y011815D01*
X016862Y011646D01*
X016862Y011463D01*
X016932Y011293D01*
X017061Y011164D01*
X017230Y011094D01*
X017933Y011094D01*
X018075Y011153D01*
X018142Y010990D01*
X018281Y010851D01*
X018463Y010776D01*
X018660Y010776D01*
X018842Y010851D01*
X018982Y010990D01*
X019057Y011172D01*
X019057Y011369D01*
X018982Y011551D01*
X018842Y011690D01*
X018660Y011766D01*
X018861Y011672D02*
X019143Y011672D01*
X019143Y011513D02*
X018997Y011513D01*
X019057Y011355D02*
X019143Y011355D01*
X019143Y011196D02*
X019057Y011196D01*
X019001Y011038D02*
X019143Y011038D01*
X019143Y010879D02*
X018871Y010879D01*
X018768Y010721D02*
X019143Y010721D01*
X019143Y010562D02*
X018970Y010562D01*
X018982Y010551D02*
X018842Y010690D01*
X018660Y010766D01*
X018463Y010766D01*
X018281Y010690D01*
X018142Y010551D01*
X018067Y010369D01*
X018067Y010172D01*
X018142Y009990D01*
X018281Y009851D01*
X018463Y009776D01*
X018660Y009776D01*
X018842Y009851D01*
X018982Y009990D01*
X019057Y010172D01*
X019057Y010369D01*
X018982Y010551D01*
X019042Y010404D02*
X019143Y010404D01*
X019143Y010245D02*
X019057Y010245D01*
X019022Y010087D02*
X019143Y010087D01*
X019143Y009928D02*
X018920Y009928D01*
X019143Y009770D02*
X011503Y009770D01*
X011518Y009928D02*
X018204Y009928D01*
X018102Y010087D02*
X012745Y010087D01*
X012886Y010245D02*
X018067Y010245D01*
X018081Y010404D02*
X012943Y010404D01*
X012943Y010562D02*
X018154Y010562D01*
X018355Y010721D02*
X012943Y010721D01*
X012943Y010879D02*
X018253Y010879D01*
X018123Y011038D02*
X012943Y011038D01*
X012192Y011355D02*
X011774Y011355D01*
X011898Y011196D02*
X012069Y011196D01*
X012023Y011038D02*
X011943Y011038D01*
X011943Y010879D02*
X012023Y010879D01*
X012023Y010721D02*
X011943Y010721D01*
X011943Y010562D02*
X012023Y010562D01*
X012023Y010404D02*
X011943Y010404D01*
X011886Y010245D02*
X012080Y010245D01*
X012221Y010087D02*
X011745Y010087D01*
X011487Y009611D02*
X018203Y009611D01*
X018102Y009453D02*
X011471Y009453D01*
X011455Y009294D02*
X018067Y009294D01*
X018082Y009136D02*
X011548Y009136D01*
X011571Y008977D02*
X018155Y008977D01*
X018359Y008819D02*
X011530Y008819D01*
X011401Y008660D02*
X018252Y008660D01*
X018281Y008690D02*
X018142Y008551D01*
X018067Y008369D01*
X018067Y008172D01*
X018142Y007990D01*
X018281Y007851D01*
X018463Y007776D01*
X018660Y007776D01*
X018842Y007851D01*
X018982Y007990D01*
X019057Y008172D01*
X019057Y008369D01*
X018982Y008551D01*
X018842Y008690D01*
X018660Y008766D01*
X018463Y008766D01*
X018281Y008690D01*
X018122Y008502D02*
X010974Y008502D01*
X010958Y008343D02*
X011181Y008343D01*
X011223Y008385D02*
X011093Y008256D01*
X011023Y008087D01*
X011023Y007384D01*
X011093Y007215D01*
X011223Y007085D01*
X011392Y007015D01*
X011575Y007015D01*
X011686Y007061D01*
X012094Y006653D01*
X012094Y006653D01*
X012164Y006582D01*
X012256Y006544D01*
X012412Y006544D01*
X012484Y006472D01*
X012624Y006414D01*
X012775Y006414D01*
X012915Y006472D01*
X013022Y006579D01*
X013080Y006719D01*
X013080Y006870D01*
X013022Y007009D01*
X012915Y007116D01*
X012796Y007166D01*
X012819Y007188D01*
X012859Y007245D01*
X012891Y007306D01*
X012912Y007372D01*
X012923Y007440D01*
X012923Y007735D01*
X012483Y007735D01*
X012043Y007735D01*
X012043Y007440D01*
X012049Y007405D01*
X011943Y007511D01*
X011943Y008087D01*
X011873Y008256D01*
X011744Y008385D01*
X011575Y008455D01*
X011392Y008455D01*
X011223Y008385D01*
X011064Y008185D02*
X010942Y008185D01*
X010943Y008026D02*
X011023Y008026D01*
X011023Y007868D02*
X010943Y007868D01*
X010943Y007709D02*
X011023Y007709D01*
X011023Y007551D02*
X010943Y007551D01*
X010943Y007392D02*
X011023Y007392D01*
X011085Y007234D02*
X010881Y007234D01*
X010720Y007075D02*
X011246Y007075D01*
X011830Y006917D02*
X008925Y006917D01*
X008925Y007075D02*
X009246Y007075D01*
X009223Y007085D02*
X009392Y007015D01*
X009575Y007015D01*
X009744Y007085D01*
X009873Y007215D01*
X009943Y007384D01*
X009943Y008087D01*
X009873Y008256D01*
X009744Y008385D01*
X009575Y008455D01*
X009392Y008455D01*
X009223Y008385D01*
X009093Y008256D01*
X009023Y008087D01*
X009023Y007384D01*
X009093Y007215D01*
X009223Y007085D01*
X009085Y007234D02*
X008925Y007234D01*
X008925Y007392D02*
X009023Y007392D01*
X009023Y007551D02*
X008925Y007551D01*
X008925Y007709D02*
X009023Y007709D01*
X009023Y007868D02*
X008925Y007868D01*
X008925Y008026D02*
X009023Y008026D01*
X009064Y008185D02*
X008925Y008185D01*
X008925Y008343D02*
X009181Y008343D01*
X008925Y008502D02*
X010451Y008502D01*
X010467Y008660D02*
X008925Y008660D01*
X008925Y008819D02*
X010483Y008819D01*
X010499Y008977D02*
X008925Y008977D01*
X008925Y009136D02*
X010515Y009136D01*
X010443Y009294D02*
X008925Y009294D01*
X008925Y009453D02*
X010403Y009453D01*
X010428Y009611D02*
X008925Y009611D01*
X008925Y009770D02*
X010533Y009770D01*
X010221Y010087D02*
X009745Y010087D01*
X009886Y010245D02*
X010080Y010245D01*
X010023Y010404D02*
X009943Y010404D01*
X009943Y010562D02*
X010023Y010562D01*
X010023Y010721D02*
X009943Y010721D01*
X009943Y010879D02*
X010023Y010879D01*
X010023Y011038D02*
X009943Y011038D01*
X007961Y011038D02*
X002233Y011038D01*
X002215Y010995D02*
X002291Y011179D01*
X002291Y011378D01*
X002215Y011562D01*
X002074Y011702D01*
X001890Y011778D01*
X001092Y011778D01*
X000908Y011702D01*
X000767Y011562D01*
X000691Y011378D01*
X000691Y011179D01*
X000767Y010995D01*
X000908Y010855D01*
X001092Y010778D01*
X001890Y010778D01*
X002074Y010855D01*
X002215Y010995D01*
X002099Y010879D02*
X007961Y010879D01*
X007961Y010721D02*
X002030Y010721D01*
X002291Y011196D02*
X007961Y011196D01*
X007961Y011355D02*
X002291Y011355D01*
X002235Y011513D02*
X007961Y011513D01*
X007961Y011672D02*
X002105Y011672D01*
X002016Y011830D02*
X007961Y011830D01*
X007961Y011989D02*
X002208Y011989D01*
X002215Y011995D02*
X002291Y012179D01*
X002291Y012378D01*
X002215Y012562D01*
X002074Y012702D01*
X001890Y012778D01*
X001092Y012778D01*
X000908Y012702D01*
X000767Y012562D01*
X000691Y012378D01*
X000691Y012179D01*
X000767Y011995D01*
X000908Y011855D01*
X001092Y011778D01*
X001890Y011778D01*
X002074Y011855D01*
X002215Y011995D01*
X002278Y012147D02*
X007961Y012147D01*
X007961Y012306D02*
X002291Y012306D01*
X002255Y012464D02*
X007961Y012464D01*
X007961Y012623D02*
X006570Y012623D01*
X006894Y012781D02*
X007961Y012781D01*
X007961Y012940D02*
X007132Y012940D01*
X007291Y013098D02*
X007961Y013098D01*
X007961Y013257D02*
X007440Y013257D01*
X007532Y013415D02*
X007961Y013415D01*
X007961Y013574D02*
X007623Y013574D01*
X007692Y013732D02*
X007961Y013732D01*
X007961Y013891D02*
X007734Y013891D01*
X007777Y014049D02*
X007961Y014049D01*
X007961Y014208D02*
X007798Y014208D01*
X007798Y014366D02*
X007961Y014366D01*
X007961Y014525D02*
X007798Y014525D01*
X007779Y014683D02*
X007961Y014683D01*
X007961Y014842D02*
X007737Y014842D01*
X007694Y015000D02*
X007961Y015000D01*
X007961Y015159D02*
X007629Y015159D01*
X007538Y015317D02*
X007961Y015317D01*
X007961Y015476D02*
X007446Y015476D01*
X007301Y015634D02*
X007951Y015634D01*
X008024Y015793D02*
X007143Y015793D01*
X006911Y015951D02*
X014846Y015951D01*
X021544Y013574D02*
X021579Y013574D01*
X021579Y013415D02*
X021544Y013415D01*
X021929Y013574D02*
X022699Y013574D01*
X022858Y013415D02*
X022014Y013415D01*
X021579Y013098D02*
X021544Y013098D01*
X021544Y012940D02*
X021579Y012940D01*
X021910Y012623D02*
X022201Y012623D01*
X022039Y012464D02*
X022017Y012464D01*
X021980Y011989D02*
X021986Y011989D01*
X021986Y011830D02*
X021792Y011830D01*
X021861Y011672D02*
X021986Y011672D01*
X021986Y010879D02*
X021871Y010879D01*
X021768Y010721D02*
X021986Y010721D01*
X021970Y010562D02*
X021986Y010562D01*
X021203Y009611D02*
X019643Y009611D01*
X019643Y009453D02*
X020421Y009453D01*
X020372Y009294D02*
X019747Y009294D01*
X019773Y009136D02*
X020372Y009136D01*
X020372Y008977D02*
X019730Y008977D01*
X019571Y008819D02*
X020372Y008819D01*
X020372Y008660D02*
X018872Y008660D01*
X018765Y008819D02*
X019215Y008819D01*
X019055Y008977D02*
X018969Y008977D01*
X019002Y008502D02*
X020372Y008502D01*
X020372Y008343D02*
X019057Y008343D01*
X019057Y008185D02*
X020372Y008185D01*
X020372Y008026D02*
X018996Y008026D01*
X018859Y007868D02*
X020372Y007868D01*
X020372Y007709D02*
X018747Y007709D01*
X018744Y007711D02*
X018673Y007734D01*
X018599Y007746D01*
X018579Y007746D01*
X018579Y007288D01*
X018544Y007288D01*
X018544Y007253D01*
X018087Y007253D01*
X018087Y007233D01*
X018099Y007159D01*
X018122Y007088D01*
X018156Y007022D01*
X018200Y006961D01*
X018252Y006908D01*
X018313Y006864D01*
X018380Y006830D01*
X018451Y006807D01*
X018525Y006796D01*
X018544Y006796D01*
X018544Y007253D01*
X018579Y007253D01*
X018579Y006796D01*
X018599Y006796D01*
X018673Y006807D01*
X018744Y006830D01*
X018811Y006864D01*
X018871Y006908D01*
X018924Y006961D01*
X018968Y007022D01*
X019002Y007088D01*
X019025Y007159D01*
X019037Y007233D01*
X019037Y007253D01*
X018579Y007253D01*
X018579Y007288D01*
X019037Y007288D01*
X019037Y007308D01*
X019025Y007382D01*
X019002Y007453D01*
X018968Y007520D01*
X018924Y007580D01*
X018871Y007633D01*
X018811Y007677D01*
X018744Y007711D01*
X018579Y007709D02*
X018544Y007709D01*
X018544Y007746D02*
X018525Y007746D01*
X018451Y007734D01*
X018380Y007711D01*
X018313Y007677D01*
X018252Y007633D01*
X018200Y007580D01*
X018156Y007520D01*
X018122Y007453D01*
X018099Y007382D01*
X018087Y007308D01*
X018087Y007288D01*
X018544Y007288D01*
X018544Y007746D01*
X018377Y007709D02*
X014868Y007709D01*
X014868Y007728D02*
X014610Y007986D01*
X014428Y007986D01*
X014246Y007986D01*
X013988Y007728D01*
X013988Y007546D01*
X013988Y007364D01*
X014246Y007106D01*
X014428Y007106D01*
X014428Y007546D01*
X014428Y007546D01*
X014428Y007106D01*
X014610Y007106D01*
X014868Y007364D01*
X014868Y007546D01*
X014428Y007546D01*
X013988Y007546D01*
X014428Y007546D01*
X014428Y007546D01*
X014428Y007546D01*
X014868Y007546D01*
X014868Y007728D01*
X014868Y007551D02*
X018178Y007551D01*
X018102Y007392D02*
X014868Y007392D01*
X014738Y007234D02*
X016089Y007234D01*
X015984Y007075D02*
X012956Y007075D01*
X013060Y006917D02*
X014148Y006917D01*
X013990Y006758D02*
X013080Y006758D01*
X013030Y006600D02*
X013968Y006600D01*
X013968Y006441D02*
X012841Y006441D01*
X012559Y006441D02*
X008823Y006441D01*
X008920Y006600D02*
X012147Y006600D01*
X011988Y006758D02*
X008925Y006758D01*
X009024Y006283D02*
X010863Y006283D01*
X011386Y006283D02*
X014041Y006283D01*
X014199Y006124D02*
X011488Y006124D01*
X010246Y007075D02*
X009720Y007075D01*
X009881Y007234D02*
X010085Y007234D01*
X010023Y007392D02*
X009943Y007392D01*
X009943Y007551D02*
X010023Y007551D01*
X010023Y007709D02*
X009943Y007709D01*
X009943Y007868D02*
X010023Y007868D01*
X010023Y008026D02*
X009943Y008026D01*
X009902Y008185D02*
X010064Y008185D01*
X010181Y008343D02*
X009786Y008343D01*
X008285Y007392D02*
X007908Y007392D01*
X007962Y007234D02*
X008285Y007234D01*
X008285Y007075D02*
X007946Y007075D01*
X006467Y008026D02*
X006429Y008026D01*
X006448Y008185D02*
X006448Y008185D01*
X006448Y008343D02*
X006448Y008343D01*
X006448Y008502D02*
X006448Y008502D01*
X006448Y008660D02*
X006448Y008660D01*
X006448Y008819D02*
X006448Y008819D01*
X006404Y008977D02*
X006492Y008977D01*
X006605Y009136D02*
X006290Y009136D01*
X007290Y009136D02*
X007332Y009136D01*
X007332Y009294D02*
X002955Y009294D01*
X002565Y009611D02*
X002165Y009611D01*
X002260Y009453D02*
X002406Y009453D01*
X002734Y009770D02*
X001911Y009770D01*
X001071Y009770D02*
X000301Y009770D01*
X000301Y009928D02*
X000834Y009928D01*
X000729Y010087D02*
X000301Y010087D01*
X000301Y010245D02*
X000691Y010245D01*
X000702Y010404D02*
X000301Y010404D01*
X000301Y010562D02*
X000768Y010562D01*
X000952Y010721D02*
X000301Y010721D01*
X000301Y010879D02*
X000883Y010879D01*
X000750Y011038D02*
X000301Y011038D01*
X000301Y011196D02*
X000691Y011196D01*
X000691Y011355D02*
X000301Y011355D01*
X000301Y011513D02*
X000747Y011513D01*
X000877Y011672D02*
X000301Y011672D01*
X000301Y011830D02*
X000966Y011830D01*
X000774Y011989D02*
X000301Y011989D01*
X000301Y012147D02*
X000704Y012147D01*
X000691Y012306D02*
X000301Y012306D01*
X000301Y012464D02*
X000727Y012464D01*
X000828Y012623D02*
X000301Y012623D01*
X000301Y012781D02*
X005002Y012781D01*
X004763Y012940D02*
X000301Y012940D01*
X000301Y013098D02*
X004604Y013098D01*
X004455Y013257D02*
X002347Y013257D01*
X002620Y013415D02*
X004363Y013415D01*
X004272Y013574D02*
X002779Y013574D01*
X002918Y013732D02*
X004204Y013732D01*
X004161Y013891D02*
X003009Y013891D01*
X003093Y014049D02*
X004119Y014049D01*
X004098Y014208D02*
X003135Y014208D01*
X003177Y014366D02*
X004098Y014366D01*
X004098Y014525D02*
X003185Y014525D01*
X003185Y014683D02*
X004116Y014683D01*
X004159Y014842D02*
X003170Y014842D01*
X003127Y015000D02*
X004201Y015000D01*
X004266Y015159D02*
X003084Y015159D01*
X002993Y015317D02*
X004358Y015317D01*
X004449Y015476D02*
X002901Y015476D01*
X002749Y015634D02*
X004594Y015634D01*
X004753Y015793D02*
X002571Y015793D01*
X002297Y015951D02*
X004984Y015951D01*
X005288Y016110D02*
X000301Y016110D01*
X000301Y015951D02*
X001134Y015951D01*
X000860Y015793D02*
X000301Y015793D01*
X000301Y015634D02*
X000681Y015634D01*
X000530Y015476D02*
X000301Y015476D01*
X000301Y015317D02*
X000438Y015317D01*
X000347Y015159D02*
X000301Y015159D01*
X000301Y015000D02*
X000304Y015000D01*
X000301Y014049D02*
X000338Y014049D01*
X000301Y013891D02*
X000421Y013891D01*
X000513Y013732D02*
X000301Y013732D01*
X000301Y013574D02*
X000652Y013574D01*
X000811Y013415D02*
X000301Y013415D01*
X000301Y013257D02*
X001084Y013257D01*
X002154Y012623D02*
X005326Y012623D01*
X000817Y009611D02*
X000301Y009611D01*
X000301Y009453D02*
X000722Y009453D01*
X000691Y009294D02*
X000301Y009294D01*
X000301Y009136D02*
X000709Y009136D01*
X000785Y008977D02*
X000301Y008977D01*
X000301Y008819D02*
X000994Y008819D01*
X001092Y008778D02*
X001732Y008778D01*
X001732Y008778D01*
X001092Y008778D01*
X000866Y008660D02*
X000301Y008660D01*
X000301Y008502D02*
X000742Y008502D01*
X000691Y008343D02*
X000301Y008343D01*
X000301Y008185D02*
X000691Y008185D01*
X000754Y008026D02*
X000301Y008026D01*
X000301Y007868D02*
X000895Y007868D01*
X001471Y005649D02*
X001511Y005649D01*
X001511Y005490D02*
X001471Y005490D01*
X001471Y005332D02*
X001511Y005332D01*
X001511Y005173D02*
X001471Y005173D01*
X001471Y005015D02*
X001511Y005015D01*
X001511Y004856D02*
X001471Y004856D01*
X003650Y002003D02*
X006030Y002003D01*
X005871Y001845D02*
X003650Y001845D01*
X003650Y001686D02*
X003886Y001686D01*
X003728Y001528D02*
X003650Y001528D01*
X003650Y001369D02*
X003685Y001369D01*
X003685Y001211D02*
X003650Y001211D01*
X003650Y001052D02*
X003736Y001052D01*
X004403Y001686D02*
X005842Y001686D01*
X006513Y001052D02*
X014405Y001052D01*
X014377Y001211D02*
X012460Y001211D01*
X012543Y002003D02*
X018137Y002003D01*
X018296Y001845D02*
X015094Y001845D01*
X015157Y001686D02*
X017603Y001686D01*
X017444Y001528D02*
X015231Y001528D01*
X015297Y001369D02*
X017377Y001369D01*
X017377Y001211D02*
X015297Y001211D01*
X015270Y001052D02*
X017405Y001052D01*
X018072Y001686D02*
X018278Y001686D01*
X018827Y001845D02*
X021296Y001845D01*
X021278Y001686D02*
X018846Y001686D01*
X018991Y001528D02*
X021133Y001528D01*
X021067Y001369D02*
X019057Y001369D01*
X019057Y001211D02*
X021067Y001211D01*
X021117Y001052D02*
X019007Y001052D01*
X020881Y002003D02*
X021137Y002003D01*
X021071Y002162D02*
X020995Y002162D01*
X021012Y002320D02*
X021067Y002320D01*
X021111Y002479D02*
X021012Y002479D01*
X021012Y002637D02*
X021111Y002637D01*
X021069Y002796D02*
X021012Y002796D01*
X020372Y002796D02*
X018709Y002796D01*
X018895Y002637D02*
X020372Y002637D01*
X020372Y002954D02*
X018946Y002954D01*
X019012Y004064D02*
X020372Y004064D01*
X020372Y004222D02*
X019057Y004222D01*
X016626Y004381D02*
X014888Y004381D01*
X014888Y004539D02*
X016218Y004539D01*
X016467Y004222D02*
X014888Y004222D01*
X014749Y004064D02*
X016309Y004064D01*
X016150Y003905D02*
X014551Y003905D01*
X014728Y005015D02*
X015959Y005015D01*
X016403Y005490D02*
X016792Y005490D01*
X017033Y006124D02*
X014657Y006124D01*
X014815Y006283D02*
X016875Y006283D01*
X016716Y006441D02*
X016478Y006441D01*
X015957Y006917D02*
X014708Y006917D01*
X014428Y007234D02*
X014428Y007234D01*
X014428Y007392D02*
X014428Y007392D01*
X014428Y007546D02*
X014428Y007986D01*
X014428Y007546D01*
X014428Y007546D01*
X014428Y007551D02*
X014428Y007551D01*
X014428Y007709D02*
X014428Y007709D01*
X014428Y007868D02*
X014428Y007868D01*
X014127Y007868D02*
X012923Y007868D01*
X012923Y007735D02*
X012923Y008030D01*
X012912Y008098D01*
X012891Y008164D01*
X012859Y008226D01*
X012819Y008282D01*
X012770Y008331D01*
X012714Y008371D01*
X012652Y008403D01*
X012586Y008424D01*
X012518Y008435D01*
X012483Y008435D01*
X012449Y008435D01*
X012380Y008424D01*
X012314Y008403D01*
X012253Y008371D01*
X012197Y008331D01*
X012148Y008282D01*
X012107Y008226D01*
X012075Y008164D01*
X012054Y008098D01*
X012043Y008030D01*
X012043Y007735D01*
X012483Y007735D01*
X012483Y007735D01*
X012483Y008435D01*
X012483Y007735D01*
X012483Y007735D01*
X012483Y007735D01*
X012923Y007735D01*
X012923Y007709D02*
X013988Y007709D01*
X013988Y007551D02*
X012923Y007551D01*
X012916Y007392D02*
X013988Y007392D01*
X014118Y007234D02*
X012852Y007234D01*
X012043Y007551D02*
X011943Y007551D01*
X011943Y007709D02*
X012043Y007709D01*
X012043Y007868D02*
X011943Y007868D01*
X011943Y008026D02*
X012043Y008026D01*
X012086Y008185D02*
X011902Y008185D01*
X011786Y008343D02*
X012214Y008343D01*
X012483Y008343D02*
X012483Y008343D01*
X012483Y008185D02*
X012483Y008185D01*
X012483Y008026D02*
X012483Y008026D01*
X012483Y007868D02*
X012483Y007868D01*
X012923Y008026D02*
X018127Y008026D01*
X018067Y008185D02*
X012880Y008185D01*
X012753Y008343D02*
X018067Y008343D01*
X018265Y007868D02*
X014729Y007868D01*
X017106Y007234D02*
X018087Y007234D01*
X018128Y007075D02*
X017211Y007075D01*
X017237Y006917D02*
X018244Y006917D01*
X018446Y006758D02*
X017202Y006758D01*
X017293Y006600D02*
X018191Y006600D01*
X018544Y006917D02*
X018579Y006917D01*
X018579Y007075D02*
X018544Y007075D01*
X018544Y007234D02*
X018579Y007234D01*
X018579Y007392D02*
X018544Y007392D01*
X018544Y007551D02*
X018579Y007551D01*
X018945Y007551D02*
X020372Y007551D01*
X020372Y007392D02*
X019022Y007392D01*
X019037Y007234D02*
X020372Y007234D01*
X020372Y007075D02*
X018995Y007075D01*
X018880Y006917D02*
X020372Y006917D01*
X020372Y006758D02*
X018678Y006758D01*
X018933Y006600D02*
X020372Y006600D01*
X020372Y006441D02*
X019027Y006441D01*
X019057Y006283D02*
X020372Y006283D01*
X020372Y006124D02*
X019037Y006124D01*
X018957Y005966D02*
X020372Y005966D01*
X021217Y006758D02*
X021446Y006758D01*
X021678Y006758D02*
X022239Y006758D01*
X022026Y006600D02*
X021933Y006600D01*
X021908Y006917D02*
X022898Y006917D01*
X022679Y007075D02*
X022389Y007075D01*
X022548Y007234D02*
X022571Y007234D01*
X022316Y007709D02*
X021796Y007709D01*
X021859Y007868D02*
X022475Y007868D01*
X022569Y008026D02*
X021996Y008026D01*
X022057Y008185D02*
X022532Y008185D01*
X022546Y008343D02*
X022057Y008343D01*
X022425Y008502D02*
X022621Y008502D01*
X022517Y008660D02*
X022830Y008660D01*
X022743Y008819D02*
X022529Y008819D01*
X022471Y008977D02*
X022606Y008977D01*
X023292Y008977D02*
X023319Y008977D01*
X023319Y008819D02*
X023292Y008819D01*
X023292Y009136D02*
X023319Y009136D01*
X023319Y009294D02*
X023292Y009294D01*
X023292Y009453D02*
X023319Y009453D01*
X023319Y009611D02*
X023292Y009611D01*
X023806Y009611D02*
X023834Y009611D01*
X023984Y009453D02*
X025216Y009453D01*
X025216Y009611D02*
X024911Y009611D01*
X025070Y009770D02*
X025216Y009770D01*
X025199Y009928D02*
X025216Y009928D01*
X025216Y009294D02*
X024050Y009294D01*
X024056Y009136D02*
X025216Y009136D01*
X025216Y008977D02*
X024006Y008977D01*
X023869Y008819D02*
X025216Y008819D01*
X025216Y008660D02*
X023782Y008660D01*
X023991Y008502D02*
X025216Y008502D01*
X025216Y008343D02*
X024066Y008343D01*
X024080Y008185D02*
X025216Y008185D01*
X025216Y008026D02*
X024043Y008026D01*
X023938Y007868D02*
X025216Y007868D01*
X025216Y007709D02*
X023997Y007709D01*
X024068Y007551D02*
X025216Y007551D01*
X025216Y007392D02*
X024080Y007392D01*
X024041Y007234D02*
X025216Y007234D01*
X025216Y007075D02*
X023933Y007075D01*
X023714Y006917D02*
X025216Y006917D01*
X025216Y006758D02*
X023963Y006758D01*
X024054Y006600D02*
X025216Y006600D01*
X025216Y006441D02*
X024080Y006441D01*
X024055Y006283D02*
X025216Y006283D01*
X025216Y006124D02*
X024671Y006124D01*
X024970Y005966D02*
X025216Y005966D01*
X025216Y005807D02*
X025129Y005807D01*
X024075Y006124D02*
X023966Y006124D01*
X021328Y007709D02*
X021217Y007709D01*
X021217Y007868D02*
X021265Y007868D01*
X019143Y009453D02*
X019022Y009453D01*
X018921Y009611D02*
X019143Y009611D01*
X017029Y011196D02*
X015134Y011196D01*
X015257Y011355D02*
X016906Y011355D01*
X016862Y011513D02*
X015302Y011513D01*
X015291Y011672D02*
X016872Y011672D01*
X016947Y011830D02*
X015216Y011830D01*
X014994Y011989D02*
X017169Y011989D01*
X017994Y011989D02*
X018144Y011989D01*
X018216Y011830D02*
X018331Y011830D01*
X024936Y011196D02*
X025216Y011196D01*
X025216Y011038D02*
X025095Y011038D01*
X025209Y010879D02*
X025216Y010879D01*
X025216Y016110D02*
X006608Y016110D01*
X004968Y008977D02*
X004928Y008977D01*
X004928Y008819D02*
X004968Y008819D01*
X004968Y008660D02*
X004928Y008660D01*
X004928Y008502D02*
X004968Y008502D01*
X004968Y008343D02*
X004928Y008343D01*
X004928Y008185D02*
X004968Y008185D01*
X004968Y008026D02*
X004928Y008026D01*
X004928Y007868D02*
X004968Y007868D01*
X006302Y002954D02*
X006302Y002954D01*
X006302Y002796D02*
X006302Y002796D01*
X006595Y002954D02*
X008875Y002954D01*
X008736Y002796D02*
X006742Y002796D01*
X006742Y002637D02*
X008736Y002637D01*
X008736Y002479D02*
X006742Y002479D01*
X009176Y002479D02*
X009176Y002479D01*
X009176Y002637D02*
X009176Y002637D01*
X009176Y002796D02*
X009176Y002796D01*
X009176Y002954D02*
X009176Y002954D01*
X009176Y002320D02*
X009176Y002320D01*
X014067Y002320D02*
X014543Y002320D01*
X021827Y001845D02*
X021868Y001845D01*
X021868Y001686D02*
X021846Y001686D01*
D21*
X013920Y002700D03*
X005967Y005062D03*
X004156Y006282D03*
X010810Y009471D03*
X011164Y008999D03*
D22*
X011322Y010574D01*
X011483Y010735D01*
X010810Y009471D02*
X010652Y007904D01*
X010483Y007735D01*
X014428Y006546D02*
X016215Y006546D01*
X016597Y006928D01*
X017255Y006271D01*
X018562Y006271D01*
X018562Y005271D02*
X016940Y005271D01*
X016597Y004928D01*
X016141Y005385D01*
X014448Y005385D01*
X015023Y015613D02*
X008211Y015613D01*
D23*
X008211Y010337D01*
X001676Y010337D01*
X001491Y010278D01*
X002857Y009550D02*
X001676Y008369D01*
X001491Y008278D01*
X002857Y009550D02*
X007582Y009550D01*
X007582Y007975D01*
X007582Y007188D02*
X006440Y007503D01*
X008763Y006007D02*
X011125Y006007D01*
X012306Y006794D02*
X011519Y007582D01*
X011483Y007735D01*
X012306Y006794D02*
X012700Y006794D01*
X016243Y003645D02*
X017424Y004826D01*
X019274Y004826D01*
X020967Y003251D02*
X020967Y008763D01*
X022149Y008763D01*
X022936Y007975D02*
X023306Y008211D01*
X022936Y007975D02*
X022149Y007188D01*
X021755Y007188D01*
X021562Y007271D01*
X019393Y009156D02*
X019393Y012306D01*
X018999Y012700D01*
X014274Y012700D01*
X012306Y014668D01*
X012278Y014794D01*
X011755Y013881D02*
X013487Y012306D01*
X018605Y012306D01*
X018562Y012271D01*
X016243Y003645D02*
X014274Y003645D01*
X020967Y003251D02*
X021361Y002857D01*
X021361Y002463D01*
X021562Y002271D01*
D24*
X019274Y004826D03*
X014274Y003645D03*
X011125Y006007D03*
X012700Y006794D03*
X008763Y006007D03*
X007582Y007188D03*
X006440Y007503D03*
X007582Y007975D03*
X011755Y013881D03*
X015023Y015613D03*
X019393Y009156D03*
X022149Y008763D03*
D25*
X023763Y014589D03*
X023763Y001991D03*
X001715Y001991D03*
X001715Y014589D03*
M02*
