G75*
%MOIN*%
%OFA0B0*%
%FSLAX24Y24*%
%IPPOS*%
%LPD*%
%AMOC8*
5,1,8,0,0,1.08239X$1,22.5*
%
%ADD10C,0.0000*%
%ADD11C,0.0050*%
D10*
X000101Y000101D02*
X000101Y016322D01*
X025416Y016322D01*
X025416Y000101D01*
X000101Y000101D01*
X005298Y014371D02*
X005300Y014421D01*
X005306Y014471D01*
X005316Y014521D01*
X005329Y014569D01*
X005346Y014617D01*
X005367Y014663D01*
X005391Y014707D01*
X005419Y014749D01*
X005450Y014789D01*
X005484Y014826D01*
X005521Y014861D01*
X005560Y014892D01*
X005601Y014921D01*
X005645Y014946D01*
X005691Y014968D01*
X005738Y014986D01*
X005786Y015000D01*
X005835Y015011D01*
X005885Y015018D01*
X005935Y015021D01*
X005986Y015020D01*
X006036Y015015D01*
X006086Y015006D01*
X006134Y014994D01*
X006182Y014977D01*
X006228Y014957D01*
X006273Y014934D01*
X006316Y014907D01*
X006356Y014877D01*
X006394Y014844D01*
X006429Y014808D01*
X006462Y014769D01*
X006491Y014728D01*
X006517Y014685D01*
X006540Y014640D01*
X006559Y014593D01*
X006574Y014545D01*
X006586Y014496D01*
X006594Y014446D01*
X006598Y014396D01*
X006598Y014346D01*
X006594Y014296D01*
X006586Y014246D01*
X006574Y014197D01*
X006559Y014149D01*
X006540Y014102D01*
X006517Y014057D01*
X006491Y014014D01*
X006462Y013973D01*
X006429Y013934D01*
X006394Y013898D01*
X006356Y013865D01*
X006316Y013835D01*
X006273Y013808D01*
X006228Y013785D01*
X006182Y013765D01*
X006134Y013748D01*
X006086Y013736D01*
X006036Y013727D01*
X005986Y013722D01*
X005935Y013721D01*
X005885Y013724D01*
X005835Y013731D01*
X005786Y013742D01*
X005738Y013756D01*
X005691Y013774D01*
X005645Y013796D01*
X005601Y013821D01*
X005560Y013850D01*
X005521Y013881D01*
X005484Y013916D01*
X005450Y013953D01*
X005419Y013993D01*
X005391Y014035D01*
X005367Y014079D01*
X005346Y014125D01*
X005329Y014173D01*
X005316Y014221D01*
X005306Y014271D01*
X005300Y014321D01*
X005298Y014371D01*
D11*
X007840Y012610D02*
X007840Y012508D01*
X007840Y012305D02*
X007840Y011898D01*
X007739Y011898D02*
X007942Y011898D01*
X008143Y011898D02*
X008143Y012203D01*
X008245Y012305D01*
X008550Y012305D01*
X008550Y011898D01*
X008751Y012000D02*
X008751Y012203D01*
X008852Y012305D01*
X009056Y012305D01*
X009158Y012203D01*
X009158Y012000D01*
X009056Y011898D01*
X008852Y011898D01*
X008751Y012000D01*
X009359Y012305D02*
X009461Y012305D01*
X009664Y012101D01*
X009664Y011898D02*
X009664Y012305D01*
X009866Y012305D02*
X010069Y012305D01*
X009967Y012407D02*
X009967Y012000D01*
X009866Y011898D01*
X010270Y011898D02*
X010575Y011898D01*
X010677Y012000D01*
X010677Y012305D01*
X010878Y012203D02*
X010979Y012305D01*
X011285Y012305D01*
X011285Y012508D02*
X011285Y011898D01*
X010979Y011898D01*
X010878Y012000D01*
X010878Y012203D01*
X011485Y012203D02*
X011485Y012000D01*
X011587Y011898D01*
X011892Y011898D01*
X011892Y012508D01*
X011892Y012305D02*
X011587Y012305D01*
X011485Y012203D01*
X012093Y012203D02*
X012093Y012000D01*
X012195Y011898D01*
X012398Y011898D01*
X012500Y012000D01*
X012500Y012203D01*
X012398Y012305D01*
X012195Y012305D01*
X012093Y012203D01*
X012701Y012203D02*
X012701Y011898D01*
X012701Y012203D02*
X012802Y012305D01*
X013006Y012305D01*
X013108Y012203D01*
X013108Y012508D02*
X013108Y011898D01*
X012904Y012888D02*
X012904Y013498D01*
X012701Y013498D02*
X013108Y013498D01*
X012500Y013498D02*
X012500Y012888D01*
X012500Y013193D02*
X012398Y013295D01*
X012195Y013295D01*
X012093Y013193D01*
X012093Y012888D01*
X011892Y012990D02*
X011791Y013091D01*
X011485Y013091D01*
X011485Y013193D02*
X011485Y012888D01*
X011791Y012888D01*
X011892Y012990D01*
X011587Y013295D02*
X011485Y013193D01*
X011587Y013295D02*
X011791Y013295D01*
X011285Y013295D02*
X011285Y012888D01*
X010878Y012888D02*
X010878Y013193D01*
X010979Y013295D01*
X011285Y013295D01*
X010677Y013498D02*
X010677Y012888D01*
X010677Y013091D02*
X010372Y013295D01*
X010170Y013193D02*
X010069Y013295D01*
X009763Y013295D01*
X009865Y013091D02*
X010069Y013091D01*
X010170Y013193D01*
X010170Y012888D02*
X009865Y012888D01*
X009763Y012990D01*
X009865Y013091D01*
X009461Y012990D02*
X009461Y012888D01*
X009359Y012888D01*
X009359Y012990D01*
X009461Y012990D01*
X009359Y012888D02*
X009563Y012684D01*
X010270Y012305D02*
X010270Y011796D01*
X010372Y011694D01*
X010473Y011694D01*
X010372Y012888D02*
X010677Y013091D01*
X007942Y012305D02*
X007840Y012305D01*
X007537Y012203D02*
X007537Y012000D01*
X007435Y011898D01*
X007130Y011898D01*
X006929Y011898D02*
X006624Y011898D01*
X006522Y012000D01*
X006624Y012101D01*
X006828Y012101D01*
X006929Y012203D01*
X006828Y012305D01*
X006522Y012305D01*
X006018Y012203D02*
X006018Y012000D01*
X005916Y011898D01*
X005611Y011898D01*
X005410Y012000D02*
X005410Y012203D01*
X005308Y012305D01*
X005105Y012305D01*
X005003Y012203D01*
X005003Y012000D01*
X005105Y011898D01*
X005308Y011898D01*
X005410Y012000D01*
X005611Y012305D02*
X005916Y012305D01*
X006018Y012203D01*
X006220Y012000D02*
X006220Y011898D01*
X006322Y011898D01*
X006322Y012000D01*
X006220Y012000D01*
X007130Y012305D02*
X007435Y012305D01*
X007537Y012203D01*
X004802Y012000D02*
X004701Y012000D01*
X004701Y011898D01*
X004802Y011898D01*
X004802Y012000D01*
X004498Y012000D02*
X004397Y011898D01*
X004091Y011898D01*
X004091Y012305D01*
X003891Y012508D02*
X003891Y011898D01*
X003891Y012101D02*
X003585Y012305D01*
X003891Y012101D02*
X003585Y011898D01*
X004498Y012000D02*
X004498Y012305D01*
M02*
