%
M48
M72
T01C0.0240
T02C0.0276
T03C0.0320
T04C0.0374
T05C0.0390
T06C0.0400
T07C0.0906
T08C0.1260
T09C0.1300
%
T01
X16597Y4928
X16597Y6928
X19393Y9156
X11755Y13881
X12700Y6794
X11125Y6007
X8763Y6007
X7582Y7188
X6440Y7503
X19274Y4826
X14274Y3645
X7582Y7975
X22149Y8763
X15023Y15613
T02
X13920Y2700
X5967Y5062
X4156Y6282
X10810Y9471
X11164Y8999
T03
X9176Y1633
X9176Y2633
X12247Y1649
X12247Y2649
X6302Y1625
X6302Y2625
X14582Y11554
X17582Y11554
X9483Y7735
X10483Y7735
X12483Y10735
X11483Y10735
X11483Y7735
X12483Y7735
X10483Y10735
X9483Y10735
X5960Y6664
X4960Y6664
X14428Y6546
X14428Y7546
X14448Y5385
X14448Y4385
X22507Y12278
X23507Y12278
X17589Y13117
X14589Y13117
X17570Y14274
X14570Y14274
X14810Y2704
X17810Y2704
X14837Y1271
X17837Y1271
X4145Y1294
X4145Y4294
T04
X23306Y7424
X23306Y8211
X23306Y6440
X23306Y9196
T05
X18562Y14271
X18562Y13271
X18562Y12271
X18562Y11271
X18562Y10271
X18562Y9271
X18562Y8271
X18562Y7271
X18562Y6271
X18562Y5271
X18562Y4271
X18562Y3271
X18562Y2271
X18562Y1271
X21562Y1271
X21562Y2271
X21562Y3271
X21562Y4271
X21562Y5271
X21562Y6271
X21562Y7271
X21562Y8271
X21562Y9271
X21562Y10271
X21562Y11271
X21562Y12271
X21562Y13271
X21562Y14271
T06
X4948Y8471
X5948Y8471
X6948Y8471
X9278Y14794
X10278Y14794
X11278Y14794
X12278Y14794
X13278Y14794
X1491Y4278
X1491Y5278
X1491Y6278
X1491Y7278
X1491Y8278
X1491Y9278
X1491Y10278
X1491Y11278
X1491Y12278
T07
X24373Y5219
X24373Y10416
T08
X1715Y14589
X1715Y1991
X23763Y1991
X23763Y14589
T09
X5948Y14371
M30
