G75*
%MOIN*%
%OFA0B0*%
%FSLAX24Y24*%
%IPPOS*%
%LPD*%
%AMOC8*
5,1,8,0,0,1.08239X$1,22.5*
%
%ADD10C,0.0000*%
D10*
X000101Y000101D02*
X000101Y016322D01*
X025416Y016322D01*
X025416Y000101D01*
X000101Y000101D01*
X005298Y014371D02*
X005300Y014421D01*
X005306Y014471D01*
X005316Y014521D01*
X005329Y014569D01*
X005346Y014617D01*
X005367Y014663D01*
X005391Y014707D01*
X005419Y014749D01*
X005450Y014789D01*
X005484Y014826D01*
X005521Y014861D01*
X005560Y014892D01*
X005601Y014921D01*
X005645Y014946D01*
X005691Y014968D01*
X005738Y014986D01*
X005786Y015000D01*
X005835Y015011D01*
X005885Y015018D01*
X005935Y015021D01*
X005986Y015020D01*
X006036Y015015D01*
X006086Y015006D01*
X006134Y014994D01*
X006182Y014977D01*
X006228Y014957D01*
X006273Y014934D01*
X006316Y014907D01*
X006356Y014877D01*
X006394Y014844D01*
X006429Y014808D01*
X006462Y014769D01*
X006491Y014728D01*
X006517Y014685D01*
X006540Y014640D01*
X006559Y014593D01*
X006574Y014545D01*
X006586Y014496D01*
X006594Y014446D01*
X006598Y014396D01*
X006598Y014346D01*
X006594Y014296D01*
X006586Y014246D01*
X006574Y014197D01*
X006559Y014149D01*
X006540Y014102D01*
X006517Y014057D01*
X006491Y014014D01*
X006462Y013973D01*
X006429Y013934D01*
X006394Y013898D01*
X006356Y013865D01*
X006316Y013835D01*
X006273Y013808D01*
X006228Y013785D01*
X006182Y013765D01*
X006134Y013748D01*
X006086Y013736D01*
X006036Y013727D01*
X005986Y013722D01*
X005935Y013721D01*
X005885Y013724D01*
X005835Y013731D01*
X005786Y013742D01*
X005738Y013756D01*
X005691Y013774D01*
X005645Y013796D01*
X005601Y013821D01*
X005560Y013850D01*
X005521Y013881D01*
X005484Y013916D01*
X005450Y013953D01*
X005419Y013993D01*
X005391Y014035D01*
X005367Y014079D01*
X005346Y014125D01*
X005329Y014173D01*
X005316Y014221D01*
X005306Y014271D01*
X005300Y014321D01*
X005298Y014371D01*
M02*
